<svg xmlns="http://www.w3.org/2000/svg" id="Amine" width="170.94" height="241.68" viewBox="0 0 170.94 241.68">
    <defs>
        <style>
            .cls-1{fill:#fff}.cls-2{fill:#e5e5e5}.cls-3{fill:#475259}.cls-4{fill:#00af7d}.cls-5{fill:#00845b}.cls-6{fill:#5a6a72}
        </style>
    </defs>
    <path id="Path_701" d="M137.09 168.61v6.22l6.22 10.19v9.42l-14.51 19.6-27.01 25.79-11.81 1.85-19.84-19.14-7.1-12.97-3.22-10.36 8.62-43.37 38.9-15.12 12.05-19.15 6.17-2.2 6.59 9.72 1.44 27.89z" class="cls-1" data-name="Path 701"/>
    <path id="Path_702" d="M15 55h7.64l10.57-1.78L47.14 55 53 60.21h12l6.56 5.4L64 77l3.32 5.32 23.7 14.59 10.49 24.63 7.49 8 3-7.25-3.24-6.1 8.72-3.24 4.25-15.44L132.87 92l11.73 6.1v10.7l-5.45 13.07-7 7.21-7.41 4.22-7.52-1.3-3.22 27.55-6.79 8.8L76 191.51 63.5 196l-9.57 2.32H41.27L37 196.91l-3.4-8.8-.62-4.79-5.4-5.86L24.6 173l-.16-5.4-2.62-5.41-1.08-9.26s-7.57-6.17-9.88-5.56l-2-8.95L12.4 131l.31-10.65-4.48-6.49S2.78 100 0 97.75c0 0 7.1-20.33 6.07-26.71z" class="cls-1" data-name="Path 702"/>
    <path id="Path_703" d="M66.13 190.73l1.23 9.73 11.7 8.34 4.97 15.59-10.5-7.88-11.62-10.58-4.28-17.82z" class="cls-2" data-name="Path 703"/>
    <path id="Path_704" d="M132.15 129.09l1.44 27.91 3.5 11.63 6.38-4.12-1-6.69s6.38-11.84 12.86-14.1l-11.6-1.72 13.94-5.45-4.22-16.68s10.91-2.67 12.15-2.26-1.14-2.37-2.17-8.23l-2.16 5.86-5.76-4.42 7-9 6.79 1.85-5.35-8-2.88-18.32L166 69.7l-5.25-6.07 3.09-3.09 7.1 4.53-3.5-8.85h-9.57l-4-13.59-7.41-10.8-7.46-2.68 1.75-6.59 4.63 2.27-3.5-8.23-18.31-3.81-12.88-7.67-10.29-1.34-10.27 6-7.95-7.7-9.42.85L64.66 0l-9.73 4.79L42 4l-13.2 7.34-1.08 8.1-5.63 1.78L16 26.78 9 49l3.47 5.63L15 55h7.64l10.57-1.78L47.14 55 53 60.21h12l6.56 5.4L64 77l3.32 5.32 23.7 14.59 10.49 24.63 7.49 8 3-7.25-3.24-6.1 8.72-3.24 4.25-15.44L132.87 92l11.73 6.1v10.7l-5.45 13.07z" class="cls-3" data-name="Path 704"/>
    <path id="Path_705" d="M47.14 55l-14 14.51 7 8.18-3.47 9.88L27.69 98l-2.17 1.86-6.17 1.54.92 12.5-4.78 11.93 3.24 10.15-5.2 12.02 9.52 1.11 6.28 7.89-.62 6.17 22.23 1.13-.72 3.5-8.22 6.88-6.28 3.5s3 10.55 1.34 12.66l3 2.26 1.23 5.2 12.35 1.26L76 191.51l31.18-23.16 6.79-8.8 3.25-27.55 7.52 1.34 7.41-4.22 7-7.21 5.45-13.07V98.11L132.87 92l-11.09 5.48-4.25 15.44-8.72 3.24 3.24 6.1-3 7.25-7.49-8-10.5-24.64-23.7-14.59L64 77l7.49-11.35L65 60.21H53z" class="cls-2" data-name="Path 705"/>
    <path id="Path_706" d="M21.82 162.17l4.48 2.63 2.41-1.65 21.51 1.19v3.44l-8.23 6.9-6.28 3.5-7.28.25-.9-.97-2.93-4.48-.16-5.4z" class="cls-4" data-name="Path 706"/>
    <path id="Path_707" d="M26.3 164.8a15.69 15.69 0 0 1 2.08 4.32l5.79 1.88 2.31 3.48-8 4 7.28-.25 6.28-3.5 8.23-6.9.72-3.5-22.23-1.13z" class="cls-5" data-name="Path 707"/>
    <path id="Path_708" d="M20.7 148.74a.9.9 0 0 1 0-1.42s4.32-1.47 6.29-1a6.13 6.13 0 0 1 2.78 1.2h-4.05l-2 1.43z" class="cls-3" data-name="Path 708"/>
    <path id="Path_709" d="M35.38 192.84l-1.98 5.15 7.97 9.98 7.41 2.78 12.92-1.18-2.52-2.06-1.96-6.23 6.95-5.54-4.32-3.56-3.66 3.85-4.17-3.85-11.99.92-1.8 2.06z" class="cls-3" data-name="Path 709"/>
    <path id="Path_710" d="M20.89 96.25l6.69-4.42 8.08.2 9.11-2.67 26.04 11.63H59.82l-10.93-4.32-12.87 3.7-9.67.62z" class="cls-3" data-name="Path 710"/>
    <path id="Path_711" d="M5.8 101.5l1.16 3.44 2.89.38 3.27 6.76.59 6.21 2.36-10.07-2.95-6.72 2.64-.69-2.23-5.4-2.11 1.12z" class="cls-2" data-name="Path 711"/>
    <path id="Path_712" d="M14.19 32.62v11.77l5.16-.93 1.34-10.84 4.22-2.74-1 10.18 7.69-11.52 10.91-6.69-4 11.27-9.57 9.93 4.84 4.63 2.57-10.6 3.4 6.18 7.72-11.43 9-7.61S48.78 40.06 49.71 43l13.38-5.36 2.16-6.69 9.57-2.36v10.86l-9.36-.21-6.8 17.7-8.1 1.11-3.42-3-13.9-1.78L22.67 55H15l-2.34-.36L9 49z" class="cls-6" data-name="Path 712"/>
    <path id="Path_713" d="M68.08 62.77l2.83-3.93 11.19-2.4 3.91 4.94-6.11 2.36-4.86 10.73 8.34 1.73-4.32 4.52 4.97 5.71-2.34 4.68-14.33-8.83-3.32-5.32 7.49-11.35z" class="cls-6" data-name="Path 713"/>
    <path id="Path_714" d="M44.05 10.55l6.56-.54-2.47 7.72-10.5-1.77 6.18-1.62z" class="cls-6" data-name="Path 714"/>
    <path id="Path_715" d="M1.34 93.71l4.37-.34 6.9 3.81.51 4.32H4.73l-1.42 1.28s-2.07-4.26-3.31-5z" class="cls-3" data-name="Path 715"/>
</svg>
