<svg xmlns="http://www.w3.org/2000/svg" width="136.831" height="249.22" viewBox="0 0 136.831 249.22">
    <defs>
        <style>
            .cls-1{fill:#f2f2f2}.cls-2{fill:#fff}.cls-3{fill:#e5e5e5}.cls-4{fill:#606060;opacity:.15}.cls-5{fill:#4d5a60}.cls-6{fill:#363f44}.cls-7{fill:#00af7d}.cls-8{fill:#292f33}.cls-9{fill:#00845b}
        </style>
    </defs>
    <g id="Anas" transform="translate(.001)">
        <path id="Path_827" d="M8.75 128.43l8.78 17.06 4.99 14.74 6.11 35.56 13.73 32.23 31.46 21.2 34.63-20.07 16.87-35.03.73-82.43-45.95 44.13-48.58-37.91-24.1 2.72z" class="cls-1" data-name="Path 827"/>
        <path id="Path_828" d="M130.21 91.83l4.9.85 1.71 5.33-1.49 17.05-3.62 11.08-9.59 26.42-15.77 12.78-22.58 10.23-31.33 3.83-27.48-11.5-12.15-18.75-2.34-13.53-.85-13.96V96.52L7.49 84.16l-.86-16.83 2.14-20.67 22.79-20.24 51.99-3.2 24.5 14.07L125.1 55.4l2.13 16.4.21 8.74z" class="cls-2" data-name="Path 828"/>
        <path id="Path_829" d="M48.8 96.22A25.51 25.51 0 0 1 47 108s8.16-9.9 3.88-18.09l-1.73 4.36z" class="cls-3" data-name="Path 829"/>
        <path id="Path_830" d="M65.06 89.9s-4.2 9.63 4.59 16.5c0 0-5.18-9.99-4.59-16.5z" class="cls-3" data-name="Path 830"/>
        <path id="Path_831" d="M36.85 108H16.46a3.62 3.62 0 0 1-3.64-3l-2.09-14.39c-.28-1.93 1.16-3.5 3.12-4a67.36 67.36 0 0 1 33.85 0c2.19.54 3.7 2.41 3.08 4.5l-2.62 8.7A11.71 11.71 0 0 1 36.85 108z" class="cls-4" data-name="Path 831"/>
        <path id="Path_832" d="M79.83 107.71h21.42a3.75 3.75 0 0 0 3.83-3l2.19-14c.3-1.88-1.21-3.39-3.27-3.9a76.39 76.39 0 0 0-35.59 0c-2.31.52-3.89 2.36-3.23 4.39l2.75 8.49c1.53 4.76 6.38 8.02 11.9 8.02z" class="cls-4" data-name="Path 832"/>
        <path id="Path_833" d="M90.67 46.62l18.88 24.76-2.73 22 3.63 24.13-5.29 12-4.47 21.33s8 10.79 8.43 10.82S124 141.32 124 141.32l5.58-9.31 5.76-16.95 1.49-17-1.71-5.33-4.9-.85-2.77-.32-3.3 1.87-2-15.66-2.77-10-9.47-17.93z" class="cls-3" data-name="Path 833"/>
        <path id="Path_834" d="M14.04 82.51l9.11-4.32h14.86l8.63 3.52 3.99-4.79-11.34-4-18.14 2.28z" class="cls-5" data-name="Path 834"/>
        <path id="Path_835" d="M66.96 75.69l5.65 4.35 7.77-4.26 12.66-1.27 13.78 1.68-14.14-6.7-13.91 1.47z" class="cls-5" data-name="Path 835"/>
        <path id="Path_836" d="M63.1 125c-.45 1.61 7.77.64 8.63-.85s-7.73-2.28-8.63.85z" class="cls-6" data-name="Path 836"/>
        <path id="Path_837" d="M55.26 125c.44 1.61-7.78.64-8.63-.85s7.77-2.28 8.63.85z" class="cls-6" data-name="Path 837"/>
        <path id="Path_838" d="M30.63 84.45v1a69.461 69.461 0 0 1 16.84 2.13 3.45 3.45 0 0 1 2.18 1.52 2.18 2.18 0 0 1 .19 1.75l-2.62 8.7A10.79 10.79 0 0 1 36.85 107H16.46a2.66 2.66 0 0 1-2.67-2.21L11.7 90.46c-.22-1.51 1.09-2.57 2.39-2.9a65.8 65.8 0 0 1 16.54-2.13v-1m0 0a67 67 0 0 0-16.78 2.16c-2 .5-3.4 2.07-3.12 4l2.09 14.33a3.62 3.62 0 0 0 3.64 3h20.39a11.71 11.71 0 0 0 11.31-8.18l2.62-8.7c.62-2.09-.89-4-3.08-4.5a70.669 70.669 0 0 0-17.07-2.16z" class="cls-7" data-name="Path 838"/>
        <path id="Path_839" d="M86.67 85.72a70.89 70.89 0 0 1 17.09 2.07c1.43.36 2.77 1.36 2.54 2.8l-2.19 14a2.79 2.79 0 0 1-2.86 2.15H79.83c-5.07 0-9.58-3-11-7.31l-2.74-8.49a1.89 1.89 0 0 1 .16-1.59 3.56 3.56 0 0 1 2.35-1.54 82.4 82.4 0 0 1 18-2.08m0-1a83.381 83.381 0 0 0-18.26 2.1c-2.31.52-3.89 2.36-3.23 4.39l2.75 8.49c1.53 4.73 6.38 8 11.9 8h21.42a3.75 3.75 0 0 0 3.83-3l2.19-14c.3-1.88-1.21-3.39-3.27-3.9a71.76 71.76 0 0 0-17.33-2.1z" class="cls-7" data-name="Path 839"/>
        <path id="Path_840" d="M102 86.38c2 .46 10 .55 10 .55l-.32 4.58H107c.4-2-1.12-3.73-5-5.13z" class="cls-7" data-name="Path 840"/>
        <path id="Path_841" d="M9.62 96.52l-3 27.86v12l1.5 8.31-3.2 12 2.34 25.4 2.35 10.87 5.06 15.71 13.47 15 20.32 7.42 17 1.69 23-2.87 16.93-7.67 13.61-19.4 6.71-23.44 3.83-23.54V132l-1.75-28.89-3.68-9.74h-2.4l2.11 13.63.16 13.1-5.27 12.79-7 12.46-8.63 5.27-9.11 1.12-4.48 2.88-5.91 4.53-7.91 3.85-21.1.85-17.47-5.54-12.67-9.16-9.27-12.47-5.11-8c-.59-8.42-.63-19.68-.43-32.16z" class="cls-6" data-name="Path 841"/>
        <path id="Path_842" d="M68.41 86.84a64 64 0 0 1-20.71-.23c1.91.66 3.22 3.29 3.22 3.29a21.43 21.43 0 0 1 14.14 0s1.12-2.58 3.35-3.06z" class="cls-7" data-name="Path 842"/>
        <path id="Path_843" d="M27.52 151.38l8.09-8 7.67-3.9 6.32-2.66a32.192 32.192 0 0 1 4-1.07c.32.11 4.44 1.12 4.44 1.12l1.2-2.82-1.9-4.05-5.75-.43-9.27 2.67-10 5.54-10 8.49v6.85z" class="cls-6" data-name="Path 843"/>
        <path id="Path_844" d="M93.94 151.7l-5.59-7.51-7.35-4.31-11.35-2.56-7.35-1.12-1.12-3.35 1.9-3.31 14.48 2.03 14.14 5.27 5.91 7.35 3.08 6.68-2.01 6.8z" class="cls-6" data-name="Path 844"/>
        <path id="Path_845" d="M39.87 145.74l7.78 3.62s7.46 2.56 8.1 2.34 9.37 0 9.37 0l7.14-1.7 7.46-2.66 4.68-2.14-24.82-1.86z" class="cls-7" data-name="Path 845"/>
        <path id="Path_846" d="M9.62 96.52l-6.29-.85-2.87 3.28 1.49 6.94 1.7 9.86 2.98 5.59z" class="cls-2" data-name="Path 846"/>
        <path id="Path_847" d="M113.72 57.11l5.63 10.64 2.77 9.97v6.73l-.38 8.93h2.4l3.3-1.87 2.77.32 1.4-5.58 2.65-8.53-3.79-20.61-13.25-2.56z" class="cls-5" data-name="Path 847"/>
        <path id="Path_848" d="M3.23 85.01l6.39 11.51-2.46-18.8-.53-10.39-3.4-4.26-1.6 10.89z" class="cls-5" data-name="Path 848"/>
        <path id="Path_849" d="M3.23 85c-5.4-19.76-4.65-39.28 7-58.38C21.71 9.13 40.1 1.2 63.31 0c28.06.19 44 9.35 55.4 22 12.72 15.21 15.16 35 15.55 55.77-7.34-14.11-23.64-25.57-51.56-33.67-15.36-2.76-30.61-2.88-45.6 2.77C13 57.6.56 70.14 3.23 85z" class="cls-8" data-name="Path 849"/>
        <path id="Path_850" d="M39.87 145.74s4.9-3.2 5.33-3.31 7.46-2.77 8.1-2.77 7.88 1.66 7.88 1.66l6.25-1.23 8.66 1.23 8.31 3.88-12.61-.2-11-.53-9 .42z" class="cls-9" data-name="Path 850"/>
        <path id="Path_851" d="M47.86 153.94l6.93 1.7h10.54l8.78-1.87-1.85 4.75v2l-1.4 3.48-16.29.66-4.83-1.53a27.446 27.446 0 0 1-1.24-2.73l.06-2.5z" class="cls-6" data-name="Path 851"/>
        <path id="Path_852" d="M7.92 86.66a54.768 54.768 0 0 0 7.39-.41C12 87.62 10.4 89.17 11.62 91l-3.1-.81z" class="cls-7" data-name="Path 852"/>
        <path id="Path_853" d="M7.92 86.66L4.33 87l1.75 3.15 2.44.02z" class="cls-9" data-name="Path 853"/>
        <path id="Path_854" d="M112 86.93l18.99 1.79-.78 3.11-18.53-.32z" class="cls-9" data-name="Path 854"/>
    </g>
</svg>
