<svg xmlns="http://www.w3.org/2000/svg" id="Danial" width="158.326" height="240.8" viewBox="0 0 158.326 240.8">
    <defs>
        <style>
            .cls-1{fill:#020202}.cls-2{fill:#f2f2f2}.cls-3{fill:#c4c4c4}.cls-4{fill:#02f6b6}.cls-5{fill:#fff}.cls-6{fill:#e5e5e5}.cls-7,.cls-8{fill:#363f44}.cls-7{opacity:.2}.cls-9{fill:#364044}.cls-10{fill:#00af7d}.cls-11{fill:#475259}
        </style>
    </defs>
    <path id="Path_716" d="M25.3 141.31l11.14 22.74 3.72-10.35-5.82-12.39z" class="cls-1" data-name="Path 716"/>
    <path id="Path_717" d="M136.28 134.46l-7.01 15-3.82 12.88-4.1 30.88-10.78 28.25-26.45 19.33-30.53-16.18-15.7-29.66-3.34-71.08 41.09 36.56 40.65-34.3 20.88 1.55z" class="cls-2" data-name="Path 717"/>
    <path id="Path_718" d="M44.34 158.67l8.62 28.06 20.85 9.43L85.73 206l18.63-1.36 15.09-7.05-15.09-1.43-16.07-4.31-12.73-10.59L55 168.49z" class="cls-3" data-name="Path 718"/>
    <path id="Path_719" d="M121.56 97.19l35.47 5.36.91 4.16-36.38-8.2z" class="cls-4" data-name="Path 719"/>
    <path id="Path_720" d="M55 176.97l-10.66-9.82-6.46-9.54-6.73-15.44-11.22-1.12-6.46-2.52-5.05-9.27-5.56-9.01L0 102.04l7.02-10.38 5.61 1.68 10.66 12.35-3.36-20.2 3.92-32L37.6 35.81 55 31.04l21.05-5.61 18.24 2.25 24.7 9.26 16.27 9.54 10.95 19.36v30.03l1.4 20.77v23.01l-4.21 20.48-17.96 27.23-19.36 7.85-30.52-5.46z" class="cls-5" data-name="Path 720"/>
    <path id="Path_721" d="M102.53 102.89s2.69 10.77-4.27 18.56c-.45-4-1-6.61-.55-10.23 2-4.32 3.35-6.59 4.82-8.33z" class="cls-6" data-name="Path 721"/>
    <path id="Path_722" d="M116.8 99.71a19.88 19.88 0 0 0 .87 18.21l3.89-3.8c-.39 1.62-5.69-7.6-4.76-14.41z" class="cls-6" data-name="Path 722"/>
    <path id="Path_723" d="M103.13 107.78a21.26 21.26 0 1 1-38.36-12.62c3.87-5.24 30.91-4.92 34.73.74a21.16 21.16 0 0 1 3.63 11.88z" class="cls-7" data-name="Path 723"/>
    <path id="Path_724" d="M157.68 107.78a21.26 21.26 0 1 1-38.36-12.62c3.87-5.24 30.91-4.92 34.73.74a21.16 21.16 0 0 1 3.63 11.88z" class="cls-7" data-name="Path 724"/>
    <path id="Path_725" d="M29.08 118.64l2.75-29.37 15.4-17.35 3.83-17.84 33.68-18 27.68 7.65 21.12 8.56 12.67 35.68c4.74-24.49 3.12-43.69-14.86-49.34 5-3.47 8.52-7.65 9.29-13.17 0 0 3.64-21.42-27.68-23.43L78.37 0C59.68 3.3 43 10.7 27.75 20.94l-16.39 23.3C7 62.31 5.91 78.68 9.66 92.46l3 .88 10.66 12.35z" class="cls-8" data-name="Path 725"/>
    <path id="Path_726" d="M125.44 187.36l-6 10.23-15.1 7-16.07-4.31-12.71-10.53s25.1-3.41 49.88-2.39z" class="cls-8" data-name="Path 726"/>
    <path id="Path_727" d="M58.82 86.53l11.52-5.77 25.41 2.88 3.4-5.35-16.88-3.18-12.96.82z" class="cls-8" data-name="Path 727"/>
    <path id="Path_728" d="M117.85 79.08l5 7.45 15.48-.99 7.88 2.4-8.86-7.13z" class="cls-8" data-name="Path 728"/>
    <path id="Path_729" d="M84.45 155.62l9.43-9.51 16.65-2.95 11.03 4.77 3.08 8.2-4.6 7.73-12.69 1.91-13.94-4.28z" class="cls-9" data-name="Path 729"/>
    <path id="Path_730" d="M84.45 155.62l9.04 8.4 9.62 3.66 10.7.61 6.97-3.63 3.86-8.53-6.85 6.27H105.9l-12.02-3.03z" class="cls-10" data-name="Path 730"/>
    <path id="Path_731" d="M124.64 156.13l-5.43-6.2-12.15-3-14.73 4.59-7.88 4.07s2.76-7.51 8.18-10.49l10.88-3.07h9.14l8.91 3.73s4.5 2.88 3.08 10.37z" class="cls-10" data-name="Path 731"/>
    <path id="Path_732" d="M93.41 151.21l.3 2.49h23.96l1.54-3.77-12.15-2.97z" class="cls-5" data-name="Path 732"/>
    <path id="Path_733" d="M93.88 159.37v-1.5h23.79l.12 4.53H105.9z" class="cls-5" data-name="Path 733"/>
    <path id="Path_734" d="M80.87 151.41l4.74-6.54 5.5-3.61 8.63-2.75 5.8-.88-1.91-2.72-10.84 2.52-5.46 2.57-3.81 3.15s-2.05 2.62-2.65 8.26z" class="cls-8" data-name="Path 734"/>
    <path id="Path_735" d="M65.17 46.52l-7.99 22.54-5.49 14.45 3.34 16.88 9.48 20.08-5.69 26.49 5.86 36.03-9.68-6.02-10.66-9.82-6.46-9.54-6.73-15.44-11.22-1.12-6.46-2.52-10.61-18.28L0 102.04l7.02-10.38 5.61 1.68 10.66 12.35 5.78 12.95 2.76-29.37 15.4-17.35 3.83-17.84z" class="cls-6" data-name="Path 735"/>
    <path id="Path_736" d="M131.1 154.82l-3.64-7.22-4.86-4.43-8.08-4.09-5.59-1.33 2.41-2.3 10.39 3.41 4.77 3.84 3.29 3.55s1.62 2.9 1.31 8.57z" class="cls-8" data-name="Path 736"/>
    <path id="Path_737" d="M25.59 92.43l37.36 5.65-.99 3.87-36.37-8.2z" class="cls-10" data-name="Path 737"/>
    <path id="Path_738" d="M81.87 129.75a22 22 0 0 1-22-22 21.76 21.76 0 0 1 4.29-13c2.36-3.19 11.3-4.15 18.24-4s15.43 1.48 17.65 4.76a22 22 0 0 1-18.22 34.25zM81 92.14c-7.78 0-14.1 1.37-15.63 3.44a20.35 20.35 0 0 0-4 12.2 20.56 20.56 0 1 0 37.6-11.49c-1.56-2.3-8.19-4-16.51-4.14z" class="cls-10" data-name="Path 738"/>
    <path id="Path_739" d="M136.42 129.75a22 22 0 0 1-22-22 21.76 21.76 0 0 1 4.29-13c2.36-3.19 11.3-4.14 18.24-4s15.43 1.48 17.65 4.76a22 22 0 0 1-18.22 34.25zm-.9-37.61c-7.78 0-14.1 1.37-15.63 3.44a20.554 20.554 0 1 0 33.59.71c-1.55-2.3-8.18-4-16.5-4.14z" class="cls-10" data-name="Path 739"/>
    <path id="Path_740" d="M114.61 106.92c-1.66-2.11-3.38-3.26-5.12-3.42-2.43-.22-4.42 1.52-5.38 2.36-.48.42-.7.61-1 .63v-.71l-.28-.64a4.671 4.671 0 0 0 .42-.35c1.1-1 3.4-3 6.44-2.7 2.14.2 4.19 1.53 6.1 4z" class="cls-10" data-name="Path 740"/>
    <path id="Path_741" d="M98.91 129.93c2.9-2.09 5.72-2.23 8.44 0a21.22 21.22 0 0 1-8.44 0z" class="cls-8" data-name="Path 741"/>
    <path id="Path_742" d="M113.13 129.93c2.89-2.09 5.71-2.23 8.43 0a21.17 21.17 0 0 1-8.43 0z" class="cls-8" data-name="Path 742"/>
    <path id="Path_743" d="M98.18 12.56l-10.84 1.78-12.21-1.78-17.73 6.9-4.53 8.08-12.61 4.92-9.07-2.36-10.63 1.07 7.19-10.23S53 3.59 78.37 0l13.71.79 9.65 8.42z" class="cls-11" data-name="Path 743"/>
    <path id="Path_744" d="M11.36 44.24l6.36 13.15-3.18 8.39 6 9.32L16 86.52l2.23 13.27-5.56-6.45-3-.88c-3.38-14.03-3-30 1.69-48.22z" class="cls-11" data-name="Path 744"/>
</svg>
