<svg xmlns="http://www.w3.org/2000/svg" id="Faraz" width="143.62" height="247" viewBox="0 0 143.62 247">
    <defs>
        <style>
            .cls-1{fill:#f2f2f2}.cls-2{fill:#fff}.cls-3{fill:#e4e4e4}.cls-4{fill:#363f44}.cls-5{fill:#364044}.cls-6{fill:#00ae7d}
        </style>
    </defs>
    <path id="Path_855" d="M125.3 137.53l-7.34 15.7-4 13.48-4.29 32.32-8.1 26.77-18.47 14.19L56.09 247l-20.61-11.98-12.49-15.31-.67-18.86-3.5-74.4 43.01 38.27 42.55-35.9 21.85 1.62z" class="cls-1" data-name="Path 855"/>
    <path id="Path_856" d="M18 52.55v63.12l2.6 23.4L29.89 158l11.89 16.71 21.16 18.19h18.94l16-16 23.77-26.74L125.7 132v-24.5l7.06-13.74 5.94-28.23L134.24 41l-21.91-11.11s-20.79-4.45-24.51-5.2-19.68 0-19.68 0l-23.39 2.6-18.94 6.32z" class="cls-2" data-name="Path 856"/>
    <path id="Path_857" d="M60.55 45.94L49.9 70.37l-7.2 12.26-9.28 20.67 4.95 18.1 1.3 23.61 10.23 23.93-12.27 12.46-15.22-16.32-3.59-38.63-.87-67.59 15.47-25.62 28.6 5.19z" class="cls-3" data-name="Path 857"/>
    <path id="Path_858" d="M33.42 87.27l19.13.15 15.96 5.23 3.16-3.34-15.78-6.68H42.7z" class="cls-4" data-name="Path 858"/>
    <path id="Path_859" d="M49.9 150.19l12.8-1.17 13.27 1.72 13.09-.55h11.67l-9.35 8.33-10.49 4.36-13.64-2.18-9.57-4.75z" class="cls-5" data-name="Path 859"/>
    <path id="Path_860" d="M55.47 149.85v3.68l4.59 2.57 10.59 2.96 10.72.91 8.91-2.22 2.43-1.63v-4.57l-16.35.91-9.05-1.48z" class="cls-2" data-name="Path 860"/>
    <path id="Path_861" d="M91.15 92.2l3.73 4.35 9.28-.74 8.09 1.76 9.64 3.81-8.49-7.81-8.76-1.76z" class="cls-4" data-name="Path 861"/>
    <path id="Path_862" d="M49.9 150.19l6.82 6.81 12.68 6s6 1.82 6.82 1.82 10-2.05 10-2.05l7.52-5.29 7-7.33-10.45 7.33-8.91 2.22-10.72-.91-10.58-3z" class="cls-6" data-name="Path 862"/>
    <path id="Path_863" d="M49.9 150.19l17.41.92 9.05 1.81 16.01-1.11 8.36-1.62-8.91-.89-6.27-.7-5.4.83-5.95-.83-11.35-1.11z" class="cls-6" data-name="Path 863"/>
    <path id="Path_864" d="M17.45 100.82l3.9 1.53 1.4-16.57V69.35l10.67-3.9 1.3-18.1 10.03-5.57 21.16 5.57 16.72-.56 2.5 8.36 15.6.27 9.47-5.01 11.69 6.41 7.25-1.67 4.17 11.69-5.94 37.42 5.94-2.88 5.39-15.6 4.92-23.39-1.95-17.55-10.58-20.48-18.67-14.89L89.17.97 60.62 0 40.01 6.68 22.19 18.94 13.83 37.6l-2.22 20.33v17.55l3.34 12.16z" class="cls-4" data-name="Path 864"/>
    <path id="Path_865" d="M17.45 100.82l-2.78 29.52-3.07 26.46v22.93l3.19 21.05 10.75 19.52 14.19 9.75 13.77 4.46 15.17 2.26 16.59-1.92 12.64-6.23a93.1 93.1 0 0 0 14.74-11.52s7.74-18.24 7.74-19.07 3.46-18.39 3.46-18.39l1.79-14 .11-13.55v-20.06s-2.41 12.07-10.58 20.06-14.39 13.18-14.39 13.18l-8 9.28-8.41 5.76-10.21 3.16-7.8-.19-10.82-7.61-12.83-15.62-11.32-13.41s-8.91-8.87-9.28-20.94l-.75-23.35z" class="cls-4" data-name="Path 865"/>
    <path id="Path_866" d="M13.34 81.81l-7.21.82L0 89.87v11.51l1.49 9.65 1.85 7.06 11.58 9.61 2.53-26.88-2.5-13.18z" class="cls-2" data-name="Path 866"/>
    <path id="Path_867" d="M13.34 81.81l-7.21.82L0 89.87v11.51l1.49 9.65 1.85 7.06 11.58 9.61 2.53-26.88-2.5-13.18z" class="cls-3" data-name="Path 867"/>
    <path id="Path_868" d="M133.31 101.38l3.35 5.2-1.67 11.14-2.61 11.14-6.75 9.84.07-16.9v-14.3l1.67-3.24z" class="cls-2" data-name="Path 868"/>
    <path id="Path_869" d="M66.05 99.15c1.1.15 8.64 6.13 2.48 15.18 0 0 6.54-5.22 4.76-10.52s-7.24-4.66-7.24-4.66z" class="cls-3" data-name="Path 869"/>
    <path id="Path_870" d="M90 102.07s-3 1.69 0 9.61c0 0-4.89-2.36-4-5.9a4.62 4.62 0 0 1 4-3.71z" class="cls-3" data-name="Path 870"/>
    <path id="Path_871" d="M64.69 136.5c.53.83 3.48 2.13 8.94 1.57s-9.58-2.56-8.94-1.57z" class="cls-4" data-name="Path 871"/>
    <path id="Path_872" d="M93 136.5c-.54.83-3.48 2.13-8.94 1.57s9.54-2.56 8.94-1.57z" class="cls-4" data-name="Path 872"/>
    <path id="Path_873" d="M127.37 104.26l-2.56 27.7-1.53 7.55 2.35-.81.8-6.48 3.04-30.04z" class="cls-4" data-name="Path 873"/>
    <path id="Path_874" d="M66.17 169.54l-5.87 9.5 5.451 5.713 10.875 1.964 7.674-6.427-3.36-9.81-6.73 1.28-4.58-.61z" class="cls-4" data-name="Path 874"/>
</svg>
