<svg xmlns="http://www.w3.org/2000/svg" id="Imam" width="157.35" height="247.17" viewBox="0 0 157.35 247.17">
    <defs>
        <style>
            .cls-1{fill:#f2f2f2}.cls-2{fill:#c4c4c4}.cls-3{fill:#fff}.cls-4,.cls-8{fill:#e5e5e5}.cls-5{fill:#363f44}.cls-6{fill:#00845b}.cls-7{fill:#00af7d}.cls-8{opacity:.47}.cls-9{fill:#606060;opacity:.15}
        </style>
    </defs>
    <path id="Path_771" d="M30.26 158.78l1.81 38.26 1.75 11.83 8.91 14.01 26.14 24.29h18.8l22.99-24.29 7.22-14.67 3.94-11.82.77-40.61z" class="cls-1" data-name="Path 771"/>
    <path id="Path_772" d="M30.26 179.41l15.6 22.07 15.33 7 19.26 1.31 19.48-8.31 22.66-25.07z" class="cls-2" data-name="Path 772"/>
    <path id="Path_773" d="M12.81 104.06l-7.23-3.5-3.5 1.75L0 112.93l2.08 9.3 1 8.54 5.81 7.11 1.2 5.26 4 3.94 2.3-.88L20 160.76l5 13.13L39.29 189l11.39 9 17.73 3.51 19-2.41 23.43-12.59 11.71-10.07 5.91-13.57 4.27-17.73 3.39 3.17 4.6-.54 7.44-10.29 8.05-16.37 1.14-6.07-2.62-12.48-4.6-2-7.76 3.28-1.31-1.06 2.83-21.48s-6.57-23.86-6.57-24.74-9.85-21.67-9.85-21.67l-18.78-15.76-40.06-2.19-27.58 5.25L27 36l-5.22 13.56-7.88 22.32-1.75 12.92.11 15.1z" class="cls-3" data-name="Path 773"/>
    <path id="Path_774" d="M122.1 44.41l-7.56 32.84 13.52 30-10.07 39.94-19.56 32.01-1.03 14.53 13.48-7.25 11.71-10.07 5.91-13.57 4.27-17.73 2.62-24.68.67-21.71.81-18.74-2.24-7.77-8.87-8.32z" class="cls-4" data-name="Path 774"/>
    <path id="Path_775" d="M136.87 121.49s-1.48-.82-1.48-1.06.41-18.47.41-18.47l1.07-13.63V80l-2.24-7.77-8.87-8.32-3.66-19.5-28.24-7.72-27.68-6.76-10 5.79-21.26 5.08-8.38 10.83-3.12 13.47L15 75.61l-1.43 10.58-.76 17.87-2.11-14.34.57-12.72 1.93-19.45L17 40.63l6.93-11.49 2.46-2.62 1.15-4.6 6.89-4.11 1.48-3.39 9.3-5.69L58.45 6l11.38-4.93L82.86 0l6.24 2.05 7.63-.24 13.13 7.88 9.94 2.54 7.88 7.88 9.19 6.9 1 12.15 6.88 8.84 2.3 9.36-2 4.6 2 11.33-2.79 23-3.16 6.49-3.74 8.12z" class="cls-5" data-name="Path 775"/>
    <path id="Path_776" d="M32.4 86.88l13.24.66 11.93 3.39-1.75-4.6-6.39-1.69-7.55-.87z" class="cls-5" data-name="Path 776"/>
    <path id="Path_777" d="M85.26 89.18l8.32-1.86h16.04l-12.97-3.29-7.77-.54-3.62 1.97z" class="cls-5" data-name="Path 777"/>
    <path id="Path_778" d="M41.92 157.97l5.75-3.83 8.48-3.45h8.92l2.68.49 2.96-.49h5.74l8.3 2.9 10.26 6.08-8.71-.55-11.16-.49-7.39-.06-6.62-.66-8.81-.1-7.99.38z" class="cls-6" data-name="Path 778"/>
    <path id="Path_779" d="M95.01 159.67L77.4 164.3l-9.89.66-8.88-1.44-14.39-5.04-1.51-.44 9.59-.23 8.81.1 6.62.66 7.39.06z" class="cls-7" data-name="Path 779"/>
    <path id="Path_780" d="M82.63 94.1c-9.06 2.62-18.7 2.35-28.78 0 5 2.77 6.77 6.31 6.41 10.46 5.29-6.75 10.51-6.92 15.66 0-.41-3.95.69-7.46 6.71-10.46z" class="cls-7" data-name="Path 780"/>
    <path id="Path_781" d="M128.06 95.31v4.59l15.56-2.29.64-1.32.2-1.65z" class="cls-6" data-name="Path 781"/>
    <path id="Path_782" d="M114.36 93.6l13.7 1.71v4.59l-6.94.33a8.8 8.8 0 0 0-6.76-6.63z" class="cls-7" data-name="Path 782"/>
    <path id="Path_783" d="M23.42 93.61L13.2 94.79l-.2 5.07 4.08.37c.92-3.61 2.99-5.81 6.34-6.62z" class="cls-7" data-name="Path 783"/>
    <path id="Path_784" d="M13.2 94.78l-1.64.81.7 4.31.7-.04z" class="cls-6" data-name="Path 784"/>
    <path id="Path_785" d="M29.55 121.23c14.25-3.06 25-6.63 29.53-11.09L58 114.68c-.84 2.89-3.13 5-7.57 6a114.571 114.571 0 0 1-20.88.55z" class="cls-8" data-name="Path 785"/>
    <path id="Path_786" d="M106.76 121.23c-14.25-3.06-25-6.63-29.53-11.09l1.08 4.54c.84 2.89 3.13 5 7.57 6a114.591 114.591 0 0 0 20.88.55z" class="cls-8" data-name="Path 786"/>
    <path id="Path_787" d="M50.43 120.73a112.4 112.4 0 0 1-26 0 7.58 7.58 0 0 1-6.69-7L17 101.56a7.53 7.53 0 0 1 6.81-8 149.729 149.729 0 0 1 28.46.23 9.08 9.08 0 0 1 8 11l-2 8.87a9.11 9.11 0 0 1-7.84 7.07z" class="cls-9" data-name="Path 787"/>
    <path id="Path_788" d="M86.21 120.73a122.8 122.8 0 0 0 27.17 0 7.73 7.73 0 0 0 7-7l.78-12.15a7.65 7.65 0 0 0-7.12-8 163.693 163.693 0 0 0-29.76.23 9.15 9.15 0 0 0-8.35 11l2.07 8.87a9.37 9.37 0 0 0 8.21 7.05z" class="cls-9" data-name="Path 788"/>
    <path id="Path_789" d="M73.79 138c-.61 1.07 6.77 1.32 7.63-.49s-5.99-2.39-7.63.49z" class="cls-5" data-name="Path 789"/>
    <path id="Path_790" d="M62.47 138c.61 1.07-6.77 1.32-7.64-.49s6-2.39 7.64.49z" class="cls-5" data-name="Path 790"/>
    <path id="Path_791" d="M36.42 94.51c5.06 0 10.34.27 15.71.8a7.58 7.58 0 0 1 6.66 9.17l-2 8.87a7.56 7.56 0 0 1-6.55 5.87 114.851 114.851 0 0 1-13.12.76 106.05 106.05 0 0 1-12.53-.73 6 6 0 0 1-5.35-5.64l-.75-12.15A6 6 0 0 1 24 95.07c4-.37 8.23-.56 12.46-.56m0-1.51c-4.23 0-8.44.18-12.6.57a7.53 7.53 0 0 0-6.81 8l.74 12.15a7.58 7.58 0 0 0 6.69 7 107.165 107.165 0 0 0 12.7.74 117.149 117.149 0 0 0 13.29-.76 9.11 9.11 0 0 0 7.86-7l2-8.87a9.08 9.08 0 0 0-8-11A155.463 155.463 0 0 0 36.42 93z" class="cls-7" data-name="Path 791"/>
    <path id="Path_792" d="M100.85 94.51c4.43 0 8.82.19 13.05.56a6.11 6.11 0 0 1 5.74 6.39l-.78 12.15a6.22 6.22 0 0 1-5.65 5.64 116 116 0 0 1-13.11.73 125.627 125.627 0 0 1-13.73-.76 7.86 7.86 0 0 1-6.91-5.88l-2.06-8.87a7.14 7.14 0 0 1 1.2-5.89 8.05 8.05 0 0 1 5.81-3.27c5.62-.53 11.15-.8 16.44-.8m0-1.51c-5.47 0-11 .28-16.58.8a9.15 9.15 0 0 0-8.35 11l2.08 8.88a9.37 9.37 0 0 0 8.22 7 127.849 127.849 0 0 0 13.89.76 117.166 117.166 0 0 0 13.28-.74 7.73 7.73 0 0 0 7-7l.78-12.15a7.65 7.65 0 0 0-7.12-8c-4.36-.39-8.75-.57-13.18-.57z" class="cls-7" data-name="Path 792"/>
</svg>
