<svg xmlns="http://www.w3.org/2000/svg" id="Iskandar" width="158.466" height="246.56" viewBox="0 0 158.466 246.56">
    <defs>
        <style>
            .cls-1{fill:#f2f2f2}.cls-2{opacity:.38}.cls-3{fill:#c9715c}.cls-4{fill:#fff}.cls-5{fill:#c4c4c4}.cls-6{fill:#e5e5e5}.cls-7{fill:#363f44}.cls-8{fill:#364044}.cls-9{fill:#00af7d}.cls-10{fill:#475259}
        </style>
    </defs>
    <path id="Path_793" d="M24.08 142.55l-1.72 21.8-7.2 17.51 10.64 17.2 15.97 19.15 15.66 15.56 10.81 7.98 4.85 4.81 8.11-.6 2.97-.53 1.44-23.33 11.98-16.3 4.55-15.33 4.28-6.23z" class="cls-1" data-name="Path 793"/>
    <path id="Path_794" d="M62.57 157.29l3.57 5.77 12.38 9.22 14.45 5.06h12.29l7.31-5.73 5.19-5.48-5.73-5.54-15.95-4.3-14.49-1.54-14.78 1.04z" class="cls-2" data-name="Path 794"/>
    <path id="Path_795" d="M65.99 156.08l.82-.29 14.78-1.04 14.49 1.54 15.95 4.3 1.97 1.91z" class="cls-3" data-name="Path 795"/>
    <path id="Path_796" d="M68.96 156.08v6.84l9.81 4.21 12.12 4.81 14.7-1.33 5.14-1.89 1.36-6.82z" class="cls-4" data-name="Path 796"/>
    <path id="Path_797" d="M24.08 145.87l1.21 13.39 3.48 13.79 19.81 15.42 25.58 14.28 15.65 3.57 8.9-4.27 1.24-4.21z" class="cls-5" data-name="Path 797"/>
    <path id="Path_798" d="M21.59 103.72l-4.15-3.9-5.15-2.08-6.31 4-4.49 7.14L0 116.51l9.3 20.76 14.78 9a72.72 72.72 0 0 0 8 24.49C49 184 64.7 192.42 80.36 200.56l10.57 1.49a134.8 134.8 0 0 0 29.15-16.94 114.571 114.571 0 0 0 18.92-31.4l6-33.88 9.46-24.29 4-28.52S146 43.6 145.49 41.61s-26.4-19.44-29.64-20.93-34.13-13-34.13-13H68.26l-15.94 12.5-12 11.46-8.47 9-11.42 16.41-3 27.9z" class="cls-4" data-name="Path 798"/>
    <path id="Path_799" d="M12.29 97.74l12.12-31.22 19.94-27.16 24.91-11.71 23.17 11.71L78 70.26 70.5 85.2 49.58 97.66l-1.75 29.15L60 189.51c-9.06-5.41-18.91-11.5-27.93-18.78-3.57-6.1-6.24-14.24-8-24.49l-14.78-9L0 116.51l1.49-7.64L6 101.73l6.31-4" class="cls-6" data-name="Path 799"/>
    <path id="Path_800" d="M90.93 100.65l-17.44-5.23-18.43 2.61L73 90.44l16.92 4.81z" class="cls-7" data-name="Path 800"/>
    <path id="Path_801" d="M115.85 103.14l2.57-5.22 13.87 2.73 10.28 6.83-11.28-3.34z" class="cls-7" data-name="Path 801"/>
    <path id="Path_802" d="M12.29 97.74a43.51 43.51 0 0 0 .54-14.41c-.31-7.7.63-16.6 2.24-26.15 4.16-8.91 8.93-17.57 13.58-22.3a48.47 48.47 0 0 1 11.71-3.24c1-7.33 4.15-14.26 8.72-20.93C57.43 5.51 66.8 1.28 79.22 0c16.21 1.73 26.87 7.05 36.63 13 11.91 6.89 22 13.58 26.72 19.69 7.29 11.42 12.91 22.88 15.88 34.38a91.55 91.55 0 0 1-4 28.52L145 119.83a173.739 173.739 0 0 0 1-37.62c-1.39-11.51-4.82-18.52-11.21-25.41C124 50 109.52 44.31 92.43 39.36c-12.05 1.9-24.36 2.86-37.37 1.5-3 6.64-9 11.93-15 17.69a52.72 52.72 0 0 1 3.74 21.92c-5 1.24-9.57 7.19-14 15.07l-1.5 28.78-3.58-1.06-3.23-19.54-4.15-3.9z" class="cls-7" data-name="Path 802"/>
    <path id="Path_803" d="M97.12 145.87c-3.19-3.29-6.51-3.19-9.91-1.59z" class="cls-7" data-name="Path 803"/>
    <path id="Path_804" d="M111.35 148.06c-2.26-2.43-4.73-2.28-7.31-.71z" class="cls-7" data-name="Path 804"/>
    <path id="Path_805" d="M61.86 158.76l3.57 5.77 12.38 9.22 14.44 5.07h12.3l7.3-5.73 5.19-5.48-5.73-5.55-15.94-4.29-14.49-1.54-14.78 1.04z" class="cls-8" data-name="Path 805"/>
    <path id="Path_806" d="M68.24 157.56v6.83l9.82 4.21 12.12 4.82 14.7-1.33 5.13-1.89 1.37-6.82-21.93-5.82z" class="cls-4" data-name="Path 806"/>
    <path id="Path_807" d="M63.58 158.16l2.52-.89 14.78-1 14.49 1.54 15.94 4.29 3.16 3.06c-15.23-5.5-34.28-7.99-50.89-7z" class="cls-9" data-name="Path 807"/>
    <path id="Path_808" d="M64.26 162.65s13.55 5.95 13.79 5.95 12.84 3.34 12.84 3.34l14 .15 12.11-4.48-5.19 5.48a56.14 56.14 0 0 1-7.3 5.73 61.45 61.45 0 0 1-12.29 0 50.181 50.181 0 0 1-14.45-5.07 34.85 34.85 0 0 1-12.38-9.22z" class="cls-9" data-name="Path 808"/>
    <path id="Path_809" d="M117.06 109.14l-7.78 4.66s-2.79 3.66-2.2 6.14a9.94 9.94 0 0 1-.15-9.77c2.89-5 10.13-2.46 10.13-2.46z" class="cls-6" data-name="Path 809"/>
    <path id="Path_810" d="M82.74 105.23s9.42 5.52 11 11.21c0 0 2-13.27-9.21-12.46z" class="cls-6" data-name="Path 810"/>
    <path id="Path_811" d="M39.54 13.54s-6.41 24.18 4.38 33.86L48.6 43s-11.88-9.14-9.06-29.46z" class="cls-7" data-name="Path 811"/>
    <path id="Path_812" d="M79.22 0a68.269 68.269 0 0 0-10.51 1.92l-.45 5.8 7.2 8.16 15.47.53L102.14 23l23.65 10 16.78 12.7 14 14.92c-2.68-8.89-8.05-18.91-14-28 .23-1.08-12.45-11.48-11.44-10.74 0 0-13.4-8.64-15.28-8.95A83 83 0 0 0 79.22 0z" class="cls-10" data-name="Path 812"/>
    <path id="Path_813" d="M37.76 32.09v7.88l2.88 3.36 1.32 4.75.81 1.92-4.64 4.47-10-5.56-1-4.8v-4l1.46-5.24a34.86 34.86 0 0 1 9.17-2.78z" class="cls-10" data-name="Path 813"/>
</svg>
