<svg xmlns="http://www.w3.org/2000/svg" id="Majed" width="150.53" height="241.7" viewBox="0 0 150.53 241.7">
    <defs>
        <style>
            .cls-1{fill:#fff}.cls-2{fill:#e5e5e5}.cls-3{fill:#364044}.cls-4{fill:#475259}.cls-5{fill:#363f44}.cls-6{fill:#00af7d}
        </style>
    </defs>
    <path id="Path_745" d="M30.13 135.69L27 170.48s5.58 35.93 6.24 36.51S49 227.79 49 227.79l12.43 12 14.42 1.91 23.77-10.33L116 213.46l11.68-35.07L134 136z" class="cls-1" data-name="Path 745"/>
    <path id="Path_746" d="M78.1 193.72l4.16 11.32 18.35 7.79-.43 18.52 16.38-17.89 11.68-35.07 2.7-15.18-27.86 14.62z" class="cls-2" data-name="Path 746"/>
    <path id="Path_747" d="M2.93 104.1l-1.22 9 3.66 16.59 4.15 13.42 9.76 18.43 9.27 22.08L40 196.09l17.57 7.57 15.61 2.93 21.23-1.47 17.08-10.49 9.28-10.25 10.49-18.54 6.34-14.4 6.59-9.76 3.66-9.52 2.68-16.35-1.22-13.66L141 64.21l-18.3-26-36.81-15.73S60.15 27.24 58 28.34 36 36 36 36L21.47 51.88l-11 17.33z" class="cls-1" data-name="Path 747"/>
    <path id="Path_748" d="M50.08 159.49l10.36 7.81 15.69 2.75 14.63-2.63 6.65-5.85 1.84-3-1.73-1.06-21.18 2.43s-15-2.45-15.13-2.48-6.26-.51-6.26-.51z" class="cls-3" data-name="Path 748"/>
    <path id="Path_749" d="M53.68 96.17l4.58-.73s5.91 6.71 8.36 9.39S58 130.21 58 130.21s3-23.91 3.29-24.89-6.59-6.83-6.59-6.83z" class="cls-2" data-name="Path 749"/>
    <path id="Path_750" d="M93.96 56.84l3.37 7.13 13.7 13.78 1.44 6.21 12.5 11.48 2.34 6.83-5.49 9.52-2.56 17.44-4.7 27.94-.85 27.94L133.44 158l7.11-28.77V77.75l-25.62-37.09h-12.2z" class="cls-2" data-name="Path 750"/>
    <path id="Path_751" d="M87.84 97.24l-5.36 4.3-2.69 3.78 4.64 11.35 4.63 8.54 1.96 3.05-5.62-19.4.49-5.13 3.89-2.92V98z" class="cls-2" data-name="Path 751"/>
    <path id="Path_752" d="M1.71 103.74l4 12.07 2.44 9.64 7.08 3.78V91.66l8.75-24s4.79 3.3 6 11.1l-2-19.88L38.19 49l18.12 2.26-9.7 7L67 56l18.89-13.76h8.85L85.4 58.9l14.46-3.48 6.55-4.89L116.52 56l-2.2 13.36 19.22 16 2.92 41.3 8.6-6.22v-11.21l4.27-7.08-.61-40.32-10.37-26.54-18.3-19.52-16.83-8.3-22-4.63L63.2 4.3l-24.4 7.08L20 29.19 13.42 40.9l-7.08 5.61-4.63 12L0 76v20.29z" class="cls-4" data-name="Path 752"/>
    <path id="Path_753" d="M8.17 125.45l2.84 23.76 7.17 15.65 4.39 10.61 1.43 7.08 2.23-2.56 2.32 3.66-4.03-14.64-5.61-15.07-2.8-17.14-.86-7.57z" class="cls-4" data-name="Path 753"/>
    <path id="Path_754" d="M31.37 186.71l7.06 9.87 17.33 13.54 16.35 5.25 13.78.49 16.23-6.22 9.88-5.13L125.76 186l3.29-9.98 8.45-19.21 1.3-7.11 5.43-7.98.83-21.33-8.6 6.22-4.21 16.84-3.29 16.1-7.32 11.53-7.5 7.51-7.69.18-.82-8.42-1.06-.09-.74 8.87-2.56-5.49-.25 3.91 1.71 6.34-3.54 4.76-4.51 1.95-5.25.98-10.13.49-13.91.61-6.09-2.69-5.62-4.02-3.78-5.65-3.16-11.91-1.16.04-.62 6.2-1.28 3.63-1.22 4.15-4.52 3.29z" class="cls-4" data-name="Path 754"/>
    <path id="Path_755" d="M61.25 176.94l5.75-2.32s7.33.61 7.7.61 9.15.55 9.15.55l8.05-.67 2.68 3.78 1.1 4-1 4.63-.86-3.9-2.82 2.59-3.79-.85 2.44 3.41-3-1.09-1.22-3.06-4 2.69-4.76-1.1-.49 3.17-1.46-1.09v-3.54l-3.3 2.07-2.36-.82-1.47 3.41-1.46-1.46v-4.27l-2.93-.73-4.52 4.39-1.22-3.66z" class="cls-4" data-name="Path 755"/>
    <path id="Path_756" d="M45.58 168.45l-1.29-7.98-2.14-5.13 2.02-6.22 4.27-1.83 7.13-1.37 5.31-1.19 6.59 1.92 4.67 2.75 1.09 5.85-4.39-1.31-5.31-2.35-5.84.37-5.68.46-2.48 2.13-1.09 5.09-1.7 8.77z" class="cls-4" data-name="Path 756"/>
    <path id="Path_757" d="M75.58 149.55l-.91 5.37 5.43-.98 3.57 1.68 5.49-.46 3.56-1.22 7.05 1.68 2.01.97 2.79 13.67 1.06.09v-9.42l2.01-5.59-3.2-5.4-4.58-2.47-10.61-.73z" class="cls-4" data-name="Path 757"/>
    <path id="Path_758" d="M68.44 0l21.6 4.22-12.78 2.19L64.14 0z" class="cls-4" data-name="Path 758"/>
    <path id="Path_759" d="M104.62 49.56l-9.33 20.68s5.49-15 4.3-20.68z" class="cls-4" data-name="Path 759"/>
    <path id="Path_760" d="M0 87.75c0-.36 8.78-32.45 8.78-32.45L16 39.8l1.4-5.94-4 7-7.06 5.65-4.63 12L0 76z" class="cls-5" data-name="Path 760"/>
    <path id="Path_761" d="M91.95 5.09l11.21 13.18 2.43 12.62-2.86 9.77-6.47 10.25 3.69-.86 4.12-3.78 13.19-2.24 11.52 5.53 5.12 15.56 7.93 2.69 7.25 17.5-.36-23.48-10.37-26.54-18.3-19.52-16.83-8.3z" class="cls-5" data-name="Path 761"/>
    <path id="Path_762" d="M24 96.11l8.51-3.93 9.8-1.37 13.45-1.5s3.29-2.68 2.31-4.39l-15.49-.73-9.52 2.32s-7.87 5.91-9.06 9.6z" class="cls-5" data-name="Path 762"/>
    <path id="Path_763" d="M125 91.74l-8.88-3-9.88-.31-13.54-.05s-3.56-2.31-2.77-4.11l15.32-2.39 9.71 1.28s8.43 5.04 10.04 8.58z" class="cls-5" data-name="Path 763"/>
    <path id="Path_764" d="M17.99 147.76l4.05 9.69 4.85 7.96 3.34 6.89 4.54 6.23 6.69 5.9-4.82 9.65-5.27-7.37-2.82-3.06-10.19-28.17z" class="cls-4" data-name="Path 764"/>
    <path id="Path_765" d="M76.13 170.7l-6.57.23-4.13-2-3.15.5 1.43-1.33-1.56-.1-1.71-.67-2.93.09 1-1.1h.91l1.55-.48.9.16a9.55 9.55 0 0 1 1.79-.68c.57-.09 1.81 1 1.81 1l2.15-.93a17.07 17.07 0 0 1 2.2.59 30.772 30.772 0 0 1 3.29-.94c.32.05 3.25.94 3.25.94l6.49-.25.5.23.28.36h3.57l.62.21.46.3 2.72-.23.83.23.68.33-1.36 1-2.1.86z" class="cls-1" data-name="Path 765"/>
    <path id="Path_766" d="M50.08 159.49s7.32 7.81 7.45 7.93S65.7 171 65.7 171l18.06 1 8.42-3.49 5.82-5.6 1.22-4.36-3.08 2.65-4.57 3.08-7 2.41-15.92-.46-6.68-1z" class="cls-6" data-name="Path 766"/>
    <path id="Path_767" d="M99.25 158.55l-1.61-1.38-12.54 1.38-8.91 1-14.79-2.38-6.41-.58-4.91 2.9 4.87-2.18 6.13.41 15.11 2.88 21.05-2.88z" class="cls-6" data-name="Path 767"/>
    <path id="Path_768" d="M76.19 160.61l-6.41-1.23-4.35-.93-3.15-.5-1-.19-1.89-.32h-2.57l.69 2.57 1 1.1h.91l1.55.49.9-.17a9.55 9.55 0 0 0 1.79.68c.57.1 1.81-1 1.81-1l2.15.93a17.068 17.068 0 0 0 2.2-.59 28.6 28.6 0 0 0 3.29.94c.32 0 3.25-.94 3.25-.94l6.49.25.5-.23.28-.36h3.57l.62-.21.46-.29 2.72.22.83-.22.68-.33.92-1.68v-.36z" class="cls-1" data-name="Path 768"/>
    <path id="Path_769" d="M77.35 143.94l3.66-.67a9.92 9.92 0 0 0 3.76-1.45l1.12-.75a8.67 8.67 0 0 0-4.27-.43 15.09 15.09 0 0 0-4.27 3.3z" class="cls-3" data-name="Path 769"/>
    <path id="Path_770" d="M69.11 143.94l-3.66-.67a9.86 9.86 0 0 1-3.75-1.45l-1.13-.75a8.71 8.71 0 0 1 4.27-.43 15 15 0 0 1 4.27 3.3z" class="cls-3" data-name="Path 770"/>
</svg>
