<svg xmlns="http://www.w3.org/2000/svg" viewBox="0 0 91.68555 91.6543"><defs><style>.cls-1{fill:none;stroke:#fff;stroke-miterlimit:10;stroke-width:2px;}.cls-2{fill:#fff;}</style></defs><title>TEXT AND ARROW button v1</title><g id="Arrow"><polygon class="cls-1" points="55.508 45.327 40.26 36.524 40.26 54.13 55.508 45.327"/></g><g id="NEXT_1" data-name="NEXT 1"><path class="cls-2" d="M50.79785,72.959l1.65235-.49316,4.04,4.8291-1.65039-5.54,1.66895-.498,2.56055,8.59179-1.66993.4961-4.01562-4.8086,1.63769,5.51758-1.66308.49609Z"/><path class="cls-2" d="M41.52051,76.98535l3.67578.209.14453-2.52539-4.29687-.2461.08007-1.39453,6.0293.34375-.51172,8.94922-6.01074-.34375.08008-1.40723,4.27832.24512.1289-2.25586-3.67578-.21Z"/><path class="cls-2" d="M32.80762,76.33691l-2.72364,2.335-1.87011-.79395,4.06054-3.10547-.61523-5.16894,1.85937.78808.23829,3.64649,2.78125-2.36329,1.88281.79786-4.14551,3.14941.58106,5.07422-1.85938-.78809Z"/><path class="cls-2" d="M19.42676,69.03809,21.45312,70.918l5.1377-5.53809,1.27344,1.18164-5.13867,5.53711,1.998,1.85547-.958,1.0332-5.29785-4.918Z"/><path class="cls-2" d="M67.9248,29.50781l-1.166-1.271,2.57226-5.74561L65.07324,26.3999l-1.17871-1.28271,6.60254-6.0625,1.17871,1.28418-2.5664,5.71533,4.24511-3.8877,1.17383,1.27881Z"/><path class="cls-2" d="M75.60547,36.08887l-1.41895-3.397-2.334.97559,1.6582,3.9707-1.28906.53907L69.89258,32.605l8.27051-3.457,2.32226,5.55517-1.30078.543L77.53125,31.294l-2.085.8706,1.41992,3.397Z"/><path class="cls-2" d="M78.83887,44.20508l3.291,1.42578.10547,2.02832L77.666,45.36768l-4.37989,2.81591-.10351-2.0166,3.17383-1.80957L73.0127,42.89014l-.10547-2.041,4.64648,2.34912,4.30859-2.74365.10352,2.0166Z"/><path class="cls-2" d="M78.13281,59.42969l.80274-2.64551L71.708,54.58887l.50488-1.66114,7.22754,2.19581.793-2.60938,1.34863.40967-2.10058,6.915Z"/><path class="cls-2" d="M19.36523,38.36035l-.291,1.69971L12.95605,41.544l5.69922.97363-.29394,1.71631-8.835-1.5083.293-1.71729,6.08984-1.47021-5.67188-.97461.291-1.71192Z"/><path class="cls-2" d="M19.86621,28.25879,18.0498,31.46143,20.251,32.709l2.124-3.74316,1.21387.69092-2.97852,5.25244-7.79687-4.42383,2.9707-5.23633,1.22656.6958-2.11523,3.72706,1.96679,1.11474L18.67773,27.584Z"/><path class="cls-2" d="M24.30566,20.73389,23.418,17.25781l1.541-1.3247.98536,5.01611L30.85059,22.688l-1.53028,1.31689-3.373-1.40185.88574,3.5415-1.54883,1.334-.9873-5.11182-4.80762-1.72754,1.53027-1.31787Z"/><path class="cls-2" d="M36.77637,11.97021l-2.584.98389,2.68946,7.05908-1.623.61817-2.68848-7.05957-2.54785.97119-.50293-1.31787,6.75586-2.57178Z"/></g></svg>