<svg xmlns="http://www.w3.org/2000/svg" width="212.584" height="243.955" viewBox="0 0 212.584 243.955">
    <defs>
        <style>
            .cls-1{fill:#363f44}.cls-2{fill:#fff}.cls-3{fill:#e5e5e5}.cls-4{fill:#00af7d}.cls-5{fill:#00845b}
        </style>
    </defs>
    <g id="Nur" transform="translate(.004)">
        <path id="Path_814" d="M.05 197.27L8 186l16.52-15.13 6-24.59L37 119.17l-.88-26.66.88-17 7.06-24.89 10.42-22.6 13.43-14.43L86.27 3.35 102.33 0l18.72 4.59 17.83 12.53 12.35 14.48 11.13 21.72 6 24.54 2.47 31.24 1.06 33.37 3.53 15.53 9 15.44 17.56 13 10.6 11.75C208.71 260.7-3.9 258 .05 197.27z" class="cls-1" data-name="Path 814"/>
        <path id="Path_815" d="M73.26 57.05l12.5-19.81 9.66-12.73 6.37-3.06 8.01 3.06 10.61 14.74 12.73 17.8 11.32 20.03 5.42 19.34v25.93l-2.12 10.61-10.14 16.03-14.85 14.12-12.26 4.73-10.13 1.18-16.98-4.71-12.96-10.61-11.56-17.92-2.35-23.57 2.35-20.04 6.6-18.62z" class="cls-2" data-name="Path 815"/>
        <path id="Path_816" d="M117.03 34.55l3.68 9.49 5.99 9.62 7.33 17.55 10.43 5.87-11.32-20.03z" class="cls-3" data-name="Path 816"/>
        <path id="Path_817" d="M101.79 21.45l-9.36 17.78-14.06 15.11-5 19.49-14.49 18.34 6.6-18.62 7.78-16.5 12.5-19.81 9.66-12.73z" class="cls-3" data-name="Path 817"/>
        <path id="Path_818" d="M67.92 68.37l9.12-.57 14.73 3.41 2.59-3.41-15.41-2.59-10.31 1.65z" class="cls-1" data-name="Path 818"/>
        <path id="Path_819" d="M112.11 68.73l2.44 2.48 10.77-5.04h12.97l-1.23-2.18-13.38-.55z" class="cls-1" data-name="Path 819"/>
        <path id="Path_820" d="M105.61 106.75c.18 2.59 6.33.86 6.88-.94s-7.12-2.35-6.88.94z" class="cls-1" data-name="Path 820"/>
        <path id="Path_821" d="M98.88 106.75c-.19 2.59-6.34.86-6.89-.94s7.12-2.35 6.89.94z" class="cls-1" data-name="Path 821"/>
        <path id="Path_822" d="M89.68 73.83l4.71 4.39.79 5.44-2.75 3.77a14 14 0 0 0-2.75-13.6z" class="cls-3" data-name="Path 822"/>
        <path id="Path_823" d="M114 73.83l-4.71 4.39-.79 5.44 2.75 3.77a14 14 0 0 1 2.75-13.6z" class="cls-3" data-name="Path 823"/>
        <path id="Path_824" d="M84.2 156.42c12.68 10.89 24.85 10.94 36.51 0-10.85 8.81-22.98 9.06-36.51 0z" class="cls-3" data-name="Path 824"/>
        <path id="Path_825" d="M85.55 126.62l8.63 3.51 7.62 1.07 8.11-.66 6.71-2.57 4.95-1.98-6.52-.25-10.35.16-7.54-.33z" class="cls-4" data-name="Path 825"/>
        <path id="Path_826" d="M84.66 126.81l2.65-4.05 9.44-4.31 10.51-.41 7.62 2.48 5.15 2.55 2.35 3.12-7.33-.45-10.35.16-7.54-.33-10.68 1.24z" class="cls-5" data-name="Path 826"/>
    </g>
</svg>
