<?xml version="1.0" encoding="UTF-8" standalone="no"?><!DOCTYPE svg PUBLIC "-//W3C//DTD SVG 1.1//EN" "http://www.w3.org/Graphics/SVG/1.1/DTD/svg11.dtd"><svg width="100%" height="100%" viewBox="0 0 36 166" version="1.1" xmlns="http://www.w3.org/2000/svg" xmlns:xlink="http://www.w3.org/1999/xlink" xml:space="preserve" xmlns:serif="http://www.serif.com/" style="fill-rule:evenodd;clip-rule:evenodd;stroke-linejoin:round;stroke-miterlimit:2;"><g><path d="M35.387,117.922l0,-9.877l-35.181,-35.182l0.001,9.879l35.18,35.18Z" style="fill:#00a178;fill-rule:nonzero;"/><path d="M35.387,141.879l0,-9.877l-35.181,-35.182l0.001,9.879l35.18,35.18Z" style="fill:#00a178;fill-rule:nonzero;"/><path d="M0.207,10.772l35.18,35.18l0,-9.879l-35.18,-35.18l0,9.879Z" style="fill:#00a178;fill-rule:nonzero;"/><path d="M35.387,93.917l0,-9.88l-35.18,-35.18l-0.001,9.878l35.181,35.182Z" style="fill:#00a178;fill-rule:nonzero;"/><path d="M35.387,165.886l0,-9.879l-35.18,-35.18l0,9.879l35.18,35.18Z" style="fill:#00a178;fill-rule:nonzero;"/><path d="M35.387,69.909l-0.001,-9.878l-35.18,-35.18l0.001,9.878l35.18,35.18Z" style="fill:#00a178;fill-rule:nonzero;"/></g></svg>