<?xml version="1.0" encoding="UTF-8" standalone="no"?><!DOCTYPE svg PUBLIC "-//W3C//DTD SVG 1.1//EN" "http://www.w3.org/Graphics/SVG/1.1/DTD/svg11.dtd"><svg width="100%" height="100%" viewBox="0 0 273 274" version="1.1" xmlns="http://www.w3.org/2000/svg" xmlns:xlink="http://www.w3.org/1999/xlink" xml:space="preserve" xmlns:serif="http://www.serif.com/" style="fill-rule:evenodd;clip-rule:evenodd;stroke-linejoin:round;stroke-miterlimit:2;"><g><path d="M270.273,6.25c1.465,0 2.65,-1.184 2.65,-2.65c0,-1.46 -1.185,-2.645 -2.65,-2.645c-1.461,0 -2.645,1.185 -2.645,2.645c0,1.466 1.184,2.65 2.645,2.65Z" style="fill:#02f6b6;fill-rule:nonzero;"/><path d="M256.228,20.29c1.466,0 2.65,-1.184 2.65,-2.645c0,-1.461 -1.184,-2.65 -2.65,-2.65c-1.456,0 -2.645,1.189 -2.645,2.65c0,1.461 1.189,2.645 2.645,2.645Z" style="fill:#02f6b6;fill-rule:nonzero;"/><path d="M270.273,20.29c1.465,0 2.65,-1.184 2.65,-2.645c0,-1.461 -1.185,-2.65 -2.65,-2.65c-1.461,0 -2.645,1.189 -2.645,2.65c0,1.461 1.184,2.645 2.645,2.645Z" style="fill:#02f6b6;fill-rule:nonzero;"/><path d="M242.188,34.335c1.461,0 2.65,-1.185 2.65,-2.65c0,-1.461 -1.189,-2.645 -2.65,-2.645c-1.465,0 -2.649,1.184 -2.649,2.645c0,1.465 1.184,2.65 2.649,2.65Z" style="fill:#02f6b6;fill-rule:nonzero;"/><path d="M256.228,34.335c1.466,0 2.65,-1.185 2.65,-2.65c0,-1.461 -1.184,-2.645 -2.65,-2.645c-1.456,0 -2.645,1.184 -2.645,2.645c0,1.465 1.189,2.65 2.645,2.65Z" style="fill:#02f6b6;fill-rule:nonzero;"/><path d="M270.273,34.335c1.465,0 2.65,-1.185 2.65,-2.65c0,-1.461 -1.185,-2.645 -2.65,-2.645c-1.461,0 -2.645,1.184 -2.645,2.645c0,1.465 1.184,2.65 2.645,2.65Z" style="fill:#02f6b6;fill-rule:nonzero;"/><path d="M228.144,48.379c1.46,0 2.645,-1.184 2.645,-2.645c0,-1.465 -1.185,-2.649 -2.645,-2.649c-1.461,0 -2.65,1.184 -2.65,2.649c0,1.461 1.189,2.645 2.65,2.645Z" style="fill:#02f6b6;fill-rule:nonzero;"/><path d="M242.188,48.379c1.461,0 2.65,-1.184 2.65,-2.645c0,-1.465 -1.189,-2.649 -2.65,-2.649c-1.465,0 -2.649,1.184 -2.649,2.649c0,1.461 1.184,2.645 2.649,2.645Z" style="fill:#02f6b6;fill-rule:nonzero;"/><path d="M256.228,48.379c1.466,0 2.65,-1.184 2.65,-2.645c0,-1.465 -1.184,-2.649 -2.65,-2.649c-1.456,0 -2.645,1.184 -2.645,2.649c0,1.461 1.189,2.645 2.645,2.645Z" style="fill:#02f6b6;fill-rule:nonzero;"/><path d="M270.273,48.379c1.465,0 2.65,-1.184 2.65,-2.645c0,-1.465 -1.185,-2.649 -2.65,-2.649c-1.461,0 -2.645,1.184 -2.645,2.649c0,1.461 1.184,2.645 2.645,2.645Z" style="fill:#02f6b6;fill-rule:nonzero;"/><path d="M214.099,62.424c1.466,0 2.65,-1.184 2.65,-2.645c0,-1.466 -1.184,-2.65 -2.65,-2.65c-1.461,0 -2.645,1.184 -2.645,2.65c0,1.461 1.184,2.645 2.645,2.645Z" style="fill:#02f6b6;fill-rule:nonzero;"/><path d="M228.144,62.424c1.46,0 2.645,-1.184 2.645,-2.645c0,-1.466 -1.185,-2.65 -2.645,-2.65c-1.461,0 -2.65,1.184 -2.65,2.65c0,1.461 1.189,2.645 2.65,2.645Z" style="fill:#02f6b6;fill-rule:nonzero;"/><path d="M242.188,62.424c1.461,0 2.65,-1.184 2.65,-2.645c0,-1.466 -1.189,-2.65 -2.65,-2.65c-1.465,0 -2.649,1.184 -2.649,2.65c0,1.461 1.184,2.645 2.649,2.645Z" style="fill:#02f6b6;fill-rule:nonzero;"/><path d="M256.228,62.424c1.466,0 2.65,-1.184 2.65,-2.645c0,-1.466 -1.184,-2.65 -2.65,-2.65c-1.456,0 -2.645,1.184 -2.645,2.65c0,1.461 1.189,2.645 2.645,2.645Z" style="fill:#02f6b6;fill-rule:nonzero;"/><path d="M270.273,62.424c1.465,0 2.65,-1.184 2.65,-2.645c0,-1.466 -1.185,-2.65 -2.65,-2.65c-1.461,0 -2.645,1.184 -2.645,2.65c0,1.461 1.184,2.645 2.645,2.645Z" style="fill:#02f6b6;fill-rule:nonzero;"/><path d="M200.054,76.469c1.466,0 2.65,-1.19 2.65,-2.65c0,-1.461 -1.184,-2.645 -2.65,-2.645c-1.46,0 -2.649,1.184 -2.649,2.645c0,1.46 1.189,2.65 2.649,2.65Z" style="fill:#02f6b6;fill-rule:nonzero;"/><path d="M214.099,76.469c1.466,0 2.65,-1.19 2.65,-2.65c0,-1.461 -1.184,-2.645 -2.65,-2.645c-1.461,0 -2.645,1.184 -2.645,2.645c0,1.46 1.184,2.65 2.645,2.65Z" style="fill:#02f6b6;fill-rule:nonzero;"/><path d="M228.144,76.469c1.46,0 2.645,-1.19 2.645,-2.65c0,-1.461 -1.185,-2.645 -2.645,-2.645c-1.461,0 -2.65,1.184 -2.65,2.645c0,1.46 1.189,2.65 2.65,2.65Z" style="fill:#02f6b6;fill-rule:nonzero;"/><path d="M242.188,76.469c1.461,0 2.65,-1.19 2.65,-2.65c0,-1.461 -1.189,-2.645 -2.65,-2.645c-1.465,0 -2.649,1.184 -2.649,2.645c0,1.46 1.184,2.65 2.649,2.65Z" style="fill:#02f6b6;fill-rule:nonzero;"/><path d="M256.228,76.469c1.466,0 2.65,-1.19 2.65,-2.65c0,-1.461 -1.184,-2.645 -2.65,-2.645c-1.456,0 -2.645,1.184 -2.645,2.645c0,1.46 1.189,2.65 2.645,2.65Z" style="fill:#02f6b6;fill-rule:nonzero;"/><path d="M270.273,76.469c1.465,0 2.65,-1.19 2.65,-2.65c0,-1.461 -1.185,-2.645 -2.65,-2.645c-1.461,0 -2.645,1.184 -2.645,2.645c0,1.46 1.184,2.65 2.645,2.65Z" style="fill:#02f6b6;fill-rule:nonzero;"/><path d="M186.015,90.513c1.46,0 2.644,-1.189 2.644,-2.65c0,-1.46 -1.184,-2.649 -2.644,-2.649c-1.466,0 -2.65,1.189 -2.65,2.649c0,1.461 1.184,2.65 2.65,2.65Z" style="fill:#02f6b6;fill-rule:nonzero;"/><path d="M200.054,90.513c1.466,0 2.65,-1.189 2.65,-2.65c0,-1.46 -1.184,-2.649 -2.65,-2.649c-1.46,0 -2.649,1.189 -2.649,2.649c0,1.461 1.189,2.65 2.649,2.65Z" style="fill:#02f6b6;fill-rule:nonzero;"/><path d="M214.099,90.513c1.466,0 2.65,-1.189 2.65,-2.65c0,-1.46 -1.184,-2.649 -2.65,-2.649c-1.461,0 -2.645,1.189 -2.645,2.649c0,1.461 1.184,2.65 2.645,2.65Z" style="fill:#02f6b6;fill-rule:nonzero;"/><path d="M228.144,90.513c1.46,0 2.645,-1.189 2.645,-2.65c0,-1.46 -1.185,-2.649 -2.645,-2.649c-1.461,0 -2.65,1.189 -2.65,2.649c0,1.461 1.189,2.65 2.65,2.65Z" style="fill:#02f6b6;fill-rule:nonzero;"/><path d="M242.188,90.513c1.461,0 2.65,-1.189 2.65,-2.65c0,-1.46 -1.189,-2.649 -2.65,-2.649c-1.465,0 -2.649,1.189 -2.649,2.649c0,1.461 1.184,2.65 2.649,2.65Z" style="fill:#02f6b6;fill-rule:nonzero;"/><path d="M256.228,90.513c1.466,0 2.65,-1.189 2.65,-2.65c0,-1.46 -1.184,-2.649 -2.65,-2.649c-1.456,0 -2.645,1.189 -2.645,2.649c0,1.461 1.189,2.65 2.645,2.65Z" style="fill:#02f6b6;fill-rule:nonzero;"/><path d="M270.273,90.513c1.465,0 2.65,-1.189 2.65,-2.65c0,-1.46 -1.185,-2.649 -2.65,-2.649c-1.461,0 -2.645,1.189 -2.645,2.649c0,1.461 1.184,2.65 2.645,2.65Z" style="fill:#02f6b6;fill-rule:nonzero;"/><path d="M171.965,104.558c1.466,0 2.65,-1.189 2.65,-2.65c0,-1.466 -1.184,-2.65 -2.65,-2.65c-1.461,0 -2.645,1.184 -2.645,2.65c0,1.461 1.184,2.65 2.645,2.65Z" style="fill:#02f6b6;fill-rule:nonzero;"/><path d="M186.015,104.558c1.46,0 2.644,-1.189 2.644,-2.65c0,-1.466 -1.184,-2.65 -2.644,-2.65c-1.466,0 -2.65,1.184 -2.65,2.65c0,1.461 1.184,2.65 2.65,2.65Z" style="fill:#02f6b6;fill-rule:nonzero;"/><path d="M200.054,104.558c1.466,0 2.65,-1.189 2.65,-2.65c0,-1.466 -1.184,-2.65 -2.65,-2.65c-1.46,0 -2.649,1.184 -2.649,2.65c0,1.461 1.189,2.65 2.649,2.65Z" style="fill:#02f6b6;fill-rule:nonzero;"/><path d="M214.099,104.558c1.466,0 2.65,-1.189 2.65,-2.65c0,-1.466 -1.184,-2.65 -2.65,-2.65c-1.461,0 -2.645,1.184 -2.645,2.65c0,1.461 1.184,2.65 2.645,2.65Z" style="fill:#02f6b6;fill-rule:nonzero;"/><path d="M228.144,104.558c1.46,0 2.645,-1.189 2.645,-2.65c0,-1.466 -1.185,-2.65 -2.645,-2.65c-1.461,0 -2.65,1.184 -2.65,2.65c0,1.461 1.189,2.65 2.65,2.65Z" style="fill:#02f6b6;fill-rule:nonzero;"/><path d="M242.188,104.558c1.461,0 2.65,-1.189 2.65,-2.65c0,-1.466 -1.189,-2.65 -2.65,-2.65c-1.465,0 -2.649,1.184 -2.649,2.65c0,1.461 1.184,2.65 2.649,2.65Z" style="fill:#02f6b6;fill-rule:nonzero;"/><path d="M256.228,104.558c1.466,0 2.65,-1.189 2.65,-2.65c0,-1.466 -1.184,-2.65 -2.65,-2.65c-1.456,0 -2.645,1.184 -2.645,2.65c0,1.461 1.189,2.65 2.645,2.65Z" style="fill:#02f6b6;fill-rule:nonzero;"/><path d="M270.273,104.558c1.465,0 2.65,-1.189 2.65,-2.65c0,-1.466 -1.185,-2.65 -2.65,-2.65c-1.461,0 -2.645,1.184 -2.645,2.65c0,1.461 1.184,2.65 2.645,2.65Z" style="fill:#02f6b6;fill-rule:nonzero;"/><path d="M157.925,118.602c1.461,0 2.65,-1.189 2.65,-2.649c0,-1.466 -1.189,-2.65 -2.65,-2.65c-1.465,0 -2.649,1.184 -2.649,2.65c0,1.46 1.184,2.649 2.649,2.649Z" style="fill:#02f6b6;fill-rule:nonzero;"/><path d="M171.965,118.602c1.466,0 2.65,-1.189 2.65,-2.649c0,-1.466 -1.184,-2.65 -2.65,-2.65c-1.461,0 -2.645,1.184 -2.645,2.65c0,1.46 1.184,2.649 2.645,2.649Z" style="fill:#02f6b6;fill-rule:nonzero;"/><path d="M186.015,118.602c1.46,0 2.644,-1.189 2.644,-2.649c0,-1.466 -1.184,-2.65 -2.644,-2.65c-1.466,0 -2.65,1.184 -2.65,2.65c0,1.46 1.184,2.649 2.65,2.649Z" style="fill:#02f6b6;fill-rule:nonzero;"/><path d="M200.054,118.602c1.466,0 2.65,-1.189 2.65,-2.649c0,-1.466 -1.184,-2.65 -2.65,-2.65c-1.46,0 -2.649,1.184 -2.649,2.65c0,1.46 1.189,2.649 2.649,2.649Z" style="fill:#02f6b6;fill-rule:nonzero;"/><path d="M214.099,118.602c1.466,0 2.65,-1.189 2.65,-2.649c0,-1.466 -1.184,-2.65 -2.65,-2.65c-1.461,0 -2.645,1.184 -2.645,2.65c0,1.46 1.184,2.649 2.645,2.649Z" style="fill:#02f6b6;fill-rule:nonzero;"/><path d="M228.144,118.602c1.46,0 2.645,-1.189 2.645,-2.649c0,-1.466 -1.185,-2.65 -2.645,-2.65c-1.461,0 -2.65,1.184 -2.65,2.65c0,1.46 1.189,2.649 2.65,2.649Z" style="fill:#02f6b6;fill-rule:nonzero;"/><path d="M242.188,118.602c1.461,0 2.65,-1.189 2.65,-2.649c0,-1.466 -1.189,-2.65 -2.65,-2.65c-1.465,0 -2.649,1.184 -2.649,2.65c0,1.46 1.184,2.649 2.649,2.649Z" style="fill:#02f6b6;fill-rule:nonzero;"/><path d="M256.228,118.602c1.466,0 2.65,-1.189 2.65,-2.649c0,-1.466 -1.184,-2.65 -2.65,-2.65c-1.456,0 -2.645,1.184 -2.645,2.65c0,1.46 1.189,2.649 2.645,2.649Z" style="fill:#02f6b6;fill-rule:nonzero;"/><path d="M270.273,118.602c1.465,0 2.65,-1.189 2.65,-2.649c0,-1.466 -1.185,-2.65 -2.65,-2.65c-1.461,0 -2.645,1.184 -2.645,2.65c0,1.46 1.184,2.649 2.645,2.649Z" style="fill:#02f6b6;fill-rule:nonzero;"/><path d="M143.881,132.642c1.46,0 2.649,-1.184 2.649,-2.645c0,-1.46 -1.189,-2.649 -2.649,-2.649c-1.466,0 -2.65,1.189 -2.65,2.649c0,1.461 1.184,2.645 2.65,2.645Z" style="fill:#02f6b6;fill-rule:nonzero;"/><path d="M157.925,132.642c1.461,0 2.65,-1.184 2.65,-2.645c0,-1.46 -1.189,-2.649 -2.65,-2.649c-1.465,0 -2.649,1.189 -2.649,2.649c0,1.461 1.184,2.645 2.649,2.645Z" style="fill:#02f6b6;fill-rule:nonzero;"/><path d="M171.965,132.642c1.466,0 2.65,-1.184 2.65,-2.645c0,-1.46 -1.184,-2.649 -2.65,-2.649c-1.461,0 -2.645,1.189 -2.645,2.649c0,1.461 1.184,2.645 2.645,2.645Z" style="fill:#02f6b6;fill-rule:nonzero;"/><path d="M186.015,132.642c1.46,0 2.644,-1.184 2.644,-2.645c0,-1.46 -1.184,-2.649 -2.644,-2.649c-1.466,0 -2.65,1.189 -2.65,2.649c0,1.461 1.184,2.645 2.65,2.645Z" style="fill:#02f6b6;fill-rule:nonzero;"/><path d="M200.054,132.642c1.466,0 2.65,-1.184 2.65,-2.645c0,-1.46 -1.184,-2.649 -2.65,-2.649c-1.46,0 -2.649,1.189 -2.649,2.649c0,1.461 1.189,2.645 2.649,2.645Z" style="fill:#02f6b6;fill-rule:nonzero;"/><path d="M214.099,132.642c1.466,0 2.65,-1.184 2.65,-2.645c0,-1.46 -1.184,-2.649 -2.65,-2.649c-1.461,0 -2.645,1.189 -2.645,2.649c0,1.461 1.184,2.645 2.645,2.645Z" style="fill:#02f6b6;fill-rule:nonzero;"/><path d="M228.144,132.642c1.46,0 2.645,-1.184 2.645,-2.645c0,-1.46 -1.185,-2.649 -2.645,-2.649c-1.461,0 -2.65,1.189 -2.65,2.649c0,1.461 1.189,2.645 2.65,2.645Z" style="fill:#02f6b6;fill-rule:nonzero;"/><path d="M242.188,132.642c1.461,0 2.65,-1.184 2.65,-2.645c0,-1.46 -1.189,-2.649 -2.65,-2.649c-1.465,0 -2.649,1.189 -2.649,2.649c0,1.461 1.184,2.645 2.649,2.645Z" style="fill:#02f6b6;fill-rule:nonzero;"/><path d="M256.228,132.642c1.466,0 2.65,-1.184 2.65,-2.645c0,-1.46 -1.184,-2.649 -2.65,-2.649c-1.456,0 -2.645,1.189 -2.645,2.649c0,1.461 1.189,2.645 2.645,2.645Z" style="fill:#02f6b6;fill-rule:nonzero;"/><path d="M270.273,132.642c1.465,0 2.65,-1.184 2.65,-2.645c0,-1.46 -1.185,-2.649 -2.65,-2.649c-1.461,0 -2.645,1.189 -2.645,2.649c0,1.461 1.184,2.645 2.645,2.645Z" style="fill:#02f6b6;fill-rule:nonzero;"/><path d="M129.836,146.687c1.461,0 2.645,-1.184 2.645,-2.65c0,-1.461 -1.184,-2.645 -2.645,-2.645c-1.461,0 -2.645,1.184 -2.645,2.645c0,1.466 1.184,2.65 2.645,2.65Z" style="fill:#02f6b6;fill-rule:nonzero;"/><path d="M143.881,146.687c1.46,0 2.649,-1.184 2.649,-2.65c0,-1.461 -1.189,-2.645 -2.649,-2.645c-1.466,0 -2.65,1.184 -2.65,2.645c0,1.466 1.184,2.65 2.65,2.65Z" style="fill:#02f6b6;fill-rule:nonzero;"/><path d="M157.925,146.687c1.461,0 2.65,-1.184 2.65,-2.65c0,-1.461 -1.189,-2.645 -2.65,-2.645c-1.465,0 -2.649,1.184 -2.649,2.645c0,1.466 1.184,2.65 2.649,2.65Z" style="fill:#02f6b6;fill-rule:nonzero;"/><path d="M171.965,146.687c1.466,0 2.65,-1.184 2.65,-2.65c0,-1.461 -1.184,-2.645 -2.65,-2.645c-1.461,0 -2.645,1.184 -2.645,2.645c0,1.466 1.184,2.65 2.645,2.65Z" style="fill:#02f6b6;fill-rule:nonzero;"/><path d="M186.015,146.687c1.46,0 2.644,-1.184 2.644,-2.65c0,-1.461 -1.184,-2.645 -2.644,-2.645c-1.466,0 -2.65,1.184 -2.65,2.645c0,1.466 1.184,2.65 2.65,2.65Z" style="fill:#02f6b6;fill-rule:nonzero;"/><path d="M200.054,146.687c1.466,0 2.65,-1.184 2.65,-2.65c0,-1.461 -1.184,-2.645 -2.65,-2.645c-1.46,0 -2.649,1.184 -2.649,2.645c0,1.466 1.189,2.65 2.649,2.65Z" style="fill:#02f6b6;fill-rule:nonzero;"/><path d="M214.099,146.687c1.466,0 2.65,-1.184 2.65,-2.65c0,-1.461 -1.184,-2.645 -2.65,-2.645c-1.461,0 -2.645,1.184 -2.645,2.645c0,1.466 1.184,2.65 2.645,2.65Z" style="fill:#02f6b6;fill-rule:nonzero;"/><path d="M228.144,146.687c1.46,0 2.645,-1.184 2.645,-2.65c0,-1.461 -1.185,-2.645 -2.645,-2.645c-1.461,0 -2.65,1.184 -2.65,2.645c0,1.466 1.189,2.65 2.65,2.65Z" style="fill:#02f6b6;fill-rule:nonzero;"/><path d="M242.188,146.687c1.461,0 2.65,-1.184 2.65,-2.65c0,-1.461 -1.189,-2.645 -2.65,-2.645c-1.465,0 -2.649,1.184 -2.649,2.645c0,1.466 1.184,2.65 2.649,2.65Z" style="fill:#02f6b6;fill-rule:nonzero;"/><path d="M256.228,146.687c1.466,0 2.65,-1.184 2.65,-2.65c0,-1.461 -1.184,-2.645 -2.65,-2.645c-1.456,0 -2.645,1.184 -2.645,2.645c0,1.466 1.189,2.65 2.645,2.65Z" style="fill:#02f6b6;fill-rule:nonzero;"/><path d="M270.273,146.687c1.465,0 2.65,-1.184 2.65,-2.65c0,-1.461 -1.185,-2.645 -2.65,-2.645c-1.461,0 -2.645,1.184 -2.645,2.645c0,1.466 1.184,2.65 2.645,2.65Z" style="fill:#02f6b6;fill-rule:nonzero;"/><path d="M115.791,160.731c1.466,0 2.65,-1.184 2.65,-2.649c0,-1.461 -1.184,-2.645 -2.65,-2.645c-1.46,0 -2.649,1.184 -2.649,2.645c0,1.465 1.189,2.649 2.649,2.649Z" style="fill:#02f6b6;fill-rule:nonzero;"/><path d="M129.836,160.731c1.461,0 2.645,-1.184 2.645,-2.649c0,-1.461 -1.184,-2.645 -2.645,-2.645c-1.461,0 -2.645,1.184 -2.645,2.645c0,1.465 1.184,2.649 2.645,2.649Z" style="fill:#02f6b6;fill-rule:nonzero;"/><path d="M143.881,160.731c1.46,0 2.649,-1.184 2.649,-2.649c0,-1.461 -1.189,-2.645 -2.649,-2.645c-1.466,0 -2.65,1.184 -2.65,2.645c0,1.465 1.184,2.649 2.65,2.649Z" style="fill:#02f6b6;fill-rule:nonzero;"/><path d="M157.925,160.731c1.461,0 2.65,-1.184 2.65,-2.649c0,-1.461 -1.189,-2.645 -2.65,-2.645c-1.465,0 -2.649,1.184 -2.649,2.645c0,1.465 1.184,2.649 2.649,2.649Z" style="fill:#02f6b6;fill-rule:nonzero;"/><path d="M171.965,160.731c1.466,0 2.65,-1.184 2.65,-2.649c0,-1.461 -1.184,-2.645 -2.65,-2.645c-1.461,0 -2.645,1.184 -2.645,2.645c0,1.465 1.184,2.649 2.645,2.649Z" style="fill:#02f6b6;fill-rule:nonzero;"/><path d="M186.015,160.731c1.46,0 2.644,-1.184 2.644,-2.649c0,-1.461 -1.184,-2.645 -2.644,-2.645c-1.466,0 -2.65,1.184 -2.65,2.645c0,1.465 1.184,2.649 2.65,2.649Z" style="fill:#02f6b6;fill-rule:nonzero;"/><path d="M200.054,160.731c1.466,0 2.65,-1.184 2.65,-2.649c0,-1.461 -1.184,-2.645 -2.65,-2.645c-1.46,0 -2.649,1.184 -2.649,2.645c0,1.465 1.189,2.649 2.649,2.649Z" style="fill:#02f6b6;fill-rule:nonzero;"/><path d="M214.099,160.731c1.466,0 2.65,-1.184 2.65,-2.649c0,-1.461 -1.184,-2.645 -2.65,-2.645c-1.461,0 -2.645,1.184 -2.645,2.645c0,1.465 1.184,2.649 2.645,2.649Z" style="fill:#02f6b6;fill-rule:nonzero;"/><path d="M228.144,160.731c1.46,0 2.645,-1.184 2.645,-2.649c0,-1.461 -1.185,-2.645 -2.645,-2.645c-1.461,0 -2.65,1.184 -2.65,2.645c0,1.465 1.189,2.649 2.65,2.649Z" style="fill:#02f6b6;fill-rule:nonzero;"/><path d="M242.188,160.731c1.461,0 2.65,-1.184 2.65,-2.649c0,-1.461 -1.189,-2.645 -2.65,-2.645c-1.465,0 -2.649,1.184 -2.649,2.645c0,1.465 1.184,2.649 2.649,2.649Z" style="fill:#02f6b6;fill-rule:nonzero;"/><path d="M256.228,160.731c1.466,0 2.65,-1.184 2.65,-2.649c0,-1.461 -1.184,-2.645 -2.65,-2.645c-1.456,0 -2.645,1.184 -2.645,2.645c0,1.465 1.189,2.649 2.645,2.649Z" style="fill:#02f6b6;fill-rule:nonzero;"/><path d="M270.273,160.731c1.465,0 2.65,-1.184 2.65,-2.649c0,-1.461 -1.185,-2.645 -2.65,-2.645c-1.461,0 -2.645,1.184 -2.645,2.645c0,1.465 1.184,2.649 2.645,2.649Z" style="fill:#02f6b6;fill-rule:nonzero;"/><path d="M101.747,174.776c1.46,0 2.649,-1.184 2.649,-2.65c0,-1.46 -1.189,-2.644 -2.649,-2.644c-1.461,0 -2.645,1.184 -2.645,2.644c0,1.466 1.184,2.65 2.645,2.65Z" style="fill:#02f6b6;fill-rule:nonzero;"/><path d="M115.791,174.776c1.466,0 2.65,-1.184 2.65,-2.65c0,-1.46 -1.184,-2.644 -2.65,-2.644c-1.46,0 -2.649,1.184 -2.649,2.644c0,1.466 1.189,2.65 2.649,2.65Z" style="fill:#02f6b6;fill-rule:nonzero;"/><path d="M129.836,174.776c1.461,0 2.645,-1.184 2.645,-2.65c0,-1.46 -1.184,-2.644 -2.645,-2.644c-1.461,0 -2.645,1.184 -2.645,2.644c0,1.466 1.184,2.65 2.645,2.65Z" style="fill:#02f6b6;fill-rule:nonzero;"/><path d="M143.881,174.776c1.46,0 2.649,-1.184 2.649,-2.65c0,-1.46 -1.189,-2.644 -2.649,-2.644c-1.466,0 -2.65,1.184 -2.65,2.644c0,1.466 1.184,2.65 2.65,2.65Z" style="fill:#02f6b6;fill-rule:nonzero;"/><path d="M157.925,174.776c1.461,0 2.65,-1.184 2.65,-2.65c0,-1.46 -1.189,-2.644 -2.65,-2.644c-1.465,0 -2.649,1.184 -2.649,2.644c0,1.466 1.184,2.65 2.649,2.65Z" style="fill:#02f6b6;fill-rule:nonzero;"/><path d="M171.965,174.776c1.466,0 2.65,-1.184 2.65,-2.65c0,-1.46 -1.184,-2.644 -2.65,-2.644c-1.461,0 -2.645,1.184 -2.645,2.644c0,1.466 1.184,2.65 2.645,2.65Z" style="fill:#02f6b6;fill-rule:nonzero;"/><path d="M186.015,174.776c1.46,0 2.644,-1.184 2.644,-2.65c0,-1.46 -1.184,-2.644 -2.644,-2.644c-1.466,0 -2.65,1.184 -2.65,2.644c0,1.466 1.184,2.65 2.65,2.65Z" style="fill:#02f6b6;fill-rule:nonzero;"/><path d="M200.054,174.776c1.466,0 2.65,-1.184 2.65,-2.65c0,-1.46 -1.184,-2.644 -2.65,-2.644c-1.46,0 -2.649,1.184 -2.649,2.644c0,1.466 1.189,2.65 2.649,2.65Z" style="fill:#02f6b6;fill-rule:nonzero;"/><path d="M214.099,174.776c1.466,0 2.65,-1.184 2.65,-2.65c0,-1.46 -1.184,-2.644 -2.65,-2.644c-1.461,0 -2.645,1.184 -2.645,2.644c0,1.466 1.184,2.65 2.645,2.65Z" style="fill:#02f6b6;fill-rule:nonzero;"/><path d="M228.144,174.776c1.46,0 2.645,-1.184 2.645,-2.65c0,-1.46 -1.185,-2.644 -2.645,-2.644c-1.461,0 -2.65,1.184 -2.65,2.644c0,1.466 1.189,2.65 2.65,2.65Z" style="fill:#02f6b6;fill-rule:nonzero;"/><path d="M242.188,174.776c1.461,0 2.65,-1.184 2.65,-2.65c0,-1.46 -1.189,-2.644 -2.65,-2.644c-1.465,0 -2.649,1.184 -2.649,2.644c0,1.466 1.184,2.65 2.649,2.65Z" style="fill:#02f6b6;fill-rule:nonzero;"/><path d="M256.228,174.776c1.466,0 2.65,-1.184 2.65,-2.65c0,-1.46 -1.184,-2.644 -2.65,-2.644c-1.456,0 -2.645,1.184 -2.645,2.644c0,1.466 1.189,2.65 2.645,2.65Z" style="fill:#02f6b6;fill-rule:nonzero;"/><path d="M270.273,174.776c1.465,0 2.65,-1.184 2.65,-2.65c0,-1.46 -1.185,-2.644 -2.65,-2.644c-1.461,0 -2.645,1.184 -2.645,2.644c0,1.466 1.184,2.65 2.645,2.65Z" style="fill:#02f6b6;fill-rule:nonzero;"/><path d="M87.707,188.821c1.461,0 2.645,-1.189 2.645,-2.65c0,-1.461 -1.184,-2.645 -2.645,-2.645c-1.466,0 -2.65,1.184 -2.65,2.645c0,1.461 1.184,2.65 2.65,2.65Z" style="fill:#02f6b6;fill-rule:nonzero;"/><path d="M101.747,188.821c1.46,0 2.649,-1.189 2.649,-2.65c0,-1.461 -1.189,-2.645 -2.649,-2.645c-1.461,0 -2.645,1.184 -2.645,2.645c0,1.461 1.184,2.65 2.645,2.65Z" style="fill:#02f6b6;fill-rule:nonzero;"/><path d="M115.791,188.821c1.466,0 2.65,-1.189 2.65,-2.65c0,-1.461 -1.184,-2.645 -2.65,-2.645c-1.46,0 -2.649,1.184 -2.649,2.645c0,1.461 1.189,2.65 2.649,2.65Z" style="fill:#02f6b6;fill-rule:nonzero;"/><path d="M129.836,188.821c1.461,0 2.645,-1.189 2.645,-2.65c0,-1.461 -1.184,-2.645 -2.645,-2.645c-1.461,0 -2.645,1.184 -2.645,2.645c0,1.461 1.184,2.65 2.645,2.65Z" style="fill:#02f6b6;fill-rule:nonzero;"/><path d="M143.881,188.821c1.46,0 2.649,-1.189 2.649,-2.65c0,-1.461 -1.189,-2.645 -2.649,-2.645c-1.466,0 -2.65,1.184 -2.65,2.645c0,1.461 1.184,2.65 2.65,2.65Z" style="fill:#02f6b6;fill-rule:nonzero;"/><path d="M157.925,188.821c1.461,0 2.65,-1.189 2.65,-2.65c0,-1.461 -1.189,-2.645 -2.65,-2.645c-1.465,0 -2.649,1.184 -2.649,2.645c0,1.461 1.184,2.65 2.649,2.65Z" style="fill:#02f6b6;fill-rule:nonzero;"/><path d="M171.965,188.821c1.466,0 2.65,-1.189 2.65,-2.65c0,-1.461 -1.184,-2.645 -2.65,-2.645c-1.461,0 -2.645,1.184 -2.645,2.645c0,1.461 1.184,2.65 2.645,2.65Z" style="fill:#02f6b6;fill-rule:nonzero;"/><path d="M186.015,188.821c1.46,0 2.644,-1.189 2.644,-2.65c0,-1.461 -1.184,-2.645 -2.644,-2.645c-1.466,0 -2.65,1.184 -2.65,2.645c0,1.461 1.184,2.65 2.65,2.65Z" style="fill:#02f6b6;fill-rule:nonzero;"/><path d="M200.054,188.821c1.466,0 2.65,-1.189 2.65,-2.65c0,-1.461 -1.184,-2.645 -2.65,-2.645c-1.46,0 -2.649,1.184 -2.649,2.645c0,1.461 1.189,2.65 2.649,2.65Z" style="fill:#02f6b6;fill-rule:nonzero;"/><path d="M214.099,188.821c1.466,0 2.65,-1.189 2.65,-2.65c0,-1.461 -1.184,-2.645 -2.65,-2.645c-1.461,0 -2.645,1.184 -2.645,2.645c0,1.461 1.184,2.65 2.645,2.65Z" style="fill:#02f6b6;fill-rule:nonzero;"/><path d="M228.144,188.821c1.46,0 2.645,-1.189 2.645,-2.65c0,-1.461 -1.185,-2.645 -2.645,-2.645c-1.461,0 -2.65,1.184 -2.65,2.645c0,1.461 1.189,2.65 2.65,2.65Z" style="fill:#02f6b6;fill-rule:nonzero;"/><path d="M242.188,188.821c1.461,0 2.65,-1.189 2.65,-2.65c0,-1.461 -1.189,-2.645 -2.65,-2.645c-1.465,0 -2.649,1.184 -2.649,2.645c0,1.461 1.184,2.65 2.649,2.65Z" style="fill:#02f6b6;fill-rule:nonzero;"/><path d="M256.228,188.821c1.466,0 2.65,-1.189 2.65,-2.65c0,-1.461 -1.184,-2.645 -2.65,-2.645c-1.456,0 -2.645,1.184 -2.645,2.645c0,1.461 1.189,2.65 2.645,2.65Z" style="fill:#02f6b6;fill-rule:nonzero;"/><path d="M270.273,188.821c1.465,0 2.65,-1.189 2.65,-2.65c0,-1.461 -1.185,-2.645 -2.65,-2.645c-1.461,0 -2.645,1.184 -2.645,2.645c0,1.461 1.184,2.65 2.645,2.65Z" style="fill:#02f6b6;fill-rule:nonzero;"/><path d="M73.657,202.861c1.466,0 2.65,-1.185 2.65,-2.645c0,-1.461 -1.184,-2.65 -2.65,-2.65c-1.456,0 -2.644,1.189 -2.644,2.65c0,1.46 1.188,2.645 2.644,2.645Z" style="fill:#02f6b6;fill-rule:nonzero;"/><path d="M87.707,202.861c1.461,0 2.645,-1.185 2.645,-2.645c0,-1.461 -1.184,-2.65 -2.645,-2.65c-1.466,0 -2.65,1.189 -2.65,2.65c0,1.46 1.184,2.645 2.65,2.645Z" style="fill:#02f6b6;fill-rule:nonzero;"/><path d="M101.747,202.861c1.46,0 2.649,-1.185 2.649,-2.645c0,-1.461 -1.189,-2.65 -2.649,-2.65c-1.461,0 -2.645,1.189 -2.645,2.65c0,1.46 1.184,2.645 2.645,2.645Z" style="fill:#02f6b6;fill-rule:nonzero;"/><path d="M115.791,202.861c1.466,0 2.65,-1.185 2.65,-2.645c0,-1.461 -1.184,-2.65 -2.65,-2.65c-1.46,0 -2.649,1.189 -2.649,2.65c0,1.46 1.189,2.645 2.649,2.645Z" style="fill:#02f6b6;fill-rule:nonzero;"/><path d="M129.836,202.861c1.461,0 2.645,-1.185 2.645,-2.645c0,-1.461 -1.184,-2.65 -2.645,-2.65c-1.461,0 -2.645,1.189 -2.645,2.65c0,1.46 1.184,2.645 2.645,2.645Z" style="fill:#02f6b6;fill-rule:nonzero;"/><path d="M143.881,202.861c1.46,0 2.649,-1.185 2.649,-2.645c0,-1.461 -1.189,-2.65 -2.649,-2.65c-1.466,0 -2.65,1.189 -2.65,2.65c0,1.46 1.184,2.645 2.65,2.645Z" style="fill:#02f6b6;fill-rule:nonzero;"/><path d="M157.925,202.861c1.461,0 2.65,-1.185 2.65,-2.645c0,-1.461 -1.189,-2.65 -2.65,-2.65c-1.465,0 -2.649,1.189 -2.649,2.65c0,1.46 1.184,2.645 2.649,2.645Z" style="fill:#02f6b6;fill-rule:nonzero;"/><path d="M171.965,202.861c1.466,0 2.65,-1.185 2.65,-2.645c0,-1.461 -1.184,-2.65 -2.65,-2.65c-1.461,0 -2.645,1.189 -2.645,2.65c0,1.46 1.184,2.645 2.645,2.645Z" style="fill:#02f6b6;fill-rule:nonzero;"/><path d="M186.015,202.861c1.46,0 2.644,-1.185 2.644,-2.645c0,-1.461 -1.184,-2.65 -2.644,-2.65c-1.466,0 -2.65,1.189 -2.65,2.65c0,1.46 1.184,2.645 2.65,2.645Z" style="fill:#02f6b6;fill-rule:nonzero;"/><path d="M200.054,202.861c1.466,0 2.65,-1.185 2.65,-2.645c0,-1.461 -1.184,-2.65 -2.65,-2.65c-1.46,0 -2.649,1.189 -2.649,2.65c0,1.46 1.189,2.645 2.649,2.645Z" style="fill:#02f6b6;fill-rule:nonzero;"/><path d="M214.099,202.861c1.466,0 2.65,-1.185 2.65,-2.645c0,-1.461 -1.184,-2.65 -2.65,-2.65c-1.461,0 -2.645,1.189 -2.645,2.65c0,1.46 1.184,2.645 2.645,2.645Z" style="fill:#02f6b6;fill-rule:nonzero;"/><path d="M228.144,202.861c1.46,0 2.645,-1.185 2.645,-2.645c0,-1.461 -1.185,-2.65 -2.645,-2.65c-1.461,0 -2.65,1.189 -2.65,2.65c0,1.46 1.189,2.645 2.65,2.645Z" style="fill:#02f6b6;fill-rule:nonzero;"/><path d="M242.188,202.861c1.461,0 2.65,-1.185 2.65,-2.645c0,-1.461 -1.189,-2.65 -2.65,-2.65c-1.465,0 -2.649,1.189 -2.649,2.65c0,1.46 1.184,2.645 2.649,2.645Z" style="fill:#02f6b6;fill-rule:nonzero;"/><path d="M256.228,202.861c1.466,0 2.65,-1.185 2.65,-2.645c0,-1.461 -1.184,-2.65 -2.65,-2.65c-1.456,0 -2.645,1.189 -2.645,2.65c0,1.46 1.189,2.645 2.645,2.645Z" style="fill:#02f6b6;fill-rule:nonzero;"/><path d="M270.273,202.861c1.465,0 2.65,-1.185 2.65,-2.645c0,-1.461 -1.185,-2.65 -2.65,-2.65c-1.461,0 -2.645,1.189 -2.645,2.65c0,1.46 1.184,2.645 2.645,2.645Z" style="fill:#02f6b6;fill-rule:nonzero;"/><path d="M59.618,216.905c1.465,0 2.649,-1.184 2.649,-2.645c0,-1.465 -1.184,-2.649 -2.649,-2.649c-1.466,0 -2.65,1.184 -2.65,2.649c0,1.461 1.184,2.645 2.65,2.645Z" style="fill:#02f6b6;fill-rule:nonzero;"/><path d="M73.657,216.905c1.466,0 2.65,-1.184 2.65,-2.645c0,-1.465 -1.184,-2.649 -2.65,-2.649c-1.456,0 -2.644,1.184 -2.644,2.649c0,1.461 1.188,2.645 2.644,2.645Z" style="fill:#02f6b6;fill-rule:nonzero;"/><path d="M87.707,216.905c1.461,0 2.645,-1.184 2.645,-2.645c0,-1.465 -1.184,-2.649 -2.645,-2.649c-1.466,0 -2.65,1.184 -2.65,2.649c0,1.461 1.184,2.645 2.65,2.645Z" style="fill:#02f6b6;fill-rule:nonzero;"/><path d="M101.747,216.905c1.46,0 2.649,-1.184 2.649,-2.645c0,-1.465 -1.189,-2.649 -2.649,-2.649c-1.461,0 -2.645,1.184 -2.645,2.649c0,1.461 1.184,2.645 2.645,2.645Z" style="fill:#02f6b6;fill-rule:nonzero;"/><path d="M115.791,216.905c1.466,0 2.65,-1.184 2.65,-2.645c0,-1.465 -1.184,-2.649 -2.65,-2.649c-1.46,0 -2.649,1.184 -2.649,2.649c0,1.461 1.189,2.645 2.649,2.645Z" style="fill:#02f6b6;fill-rule:nonzero;"/><path d="M129.836,216.905c1.461,0 2.645,-1.184 2.645,-2.645c0,-1.465 -1.184,-2.649 -2.645,-2.649c-1.461,0 -2.645,1.184 -2.645,2.649c0,1.461 1.184,2.645 2.645,2.645Z" style="fill:#02f6b6;fill-rule:nonzero;"/><path d="M143.881,216.905c1.46,0 2.649,-1.184 2.649,-2.645c0,-1.465 -1.189,-2.649 -2.649,-2.649c-1.466,0 -2.65,1.184 -2.65,2.649c0,1.461 1.184,2.645 2.65,2.645Z" style="fill:#02f6b6;fill-rule:nonzero;"/><path d="M157.925,216.905c1.461,0 2.65,-1.184 2.65,-2.645c0,-1.465 -1.189,-2.649 -2.65,-2.649c-1.465,0 -2.649,1.184 -2.649,2.649c0,1.461 1.184,2.645 2.649,2.645Z" style="fill:#02f6b6;fill-rule:nonzero;"/><path d="M171.965,216.905c1.466,0 2.65,-1.184 2.65,-2.645c0,-1.465 -1.184,-2.649 -2.65,-2.649c-1.461,0 -2.645,1.184 -2.645,2.649c0,1.461 1.184,2.645 2.645,2.645Z" style="fill:#02f6b6;fill-rule:nonzero;"/><path d="M186.015,216.905c1.46,0 2.644,-1.184 2.644,-2.645c0,-1.465 -1.184,-2.649 -2.644,-2.649c-1.466,0 -2.65,1.184 -2.65,2.649c0,1.461 1.184,2.645 2.65,2.645Z" style="fill:#02f6b6;fill-rule:nonzero;"/><path d="M200.054,216.905c1.466,0 2.65,-1.184 2.65,-2.645c0,-1.465 -1.184,-2.649 -2.65,-2.649c-1.46,0 -2.649,1.184 -2.649,2.649c0,1.461 1.189,2.645 2.649,2.645Z" style="fill:#02f6b6;fill-rule:nonzero;"/><path d="M214.099,216.905c1.466,0 2.65,-1.184 2.65,-2.645c0,-1.465 -1.184,-2.649 -2.65,-2.649c-1.461,0 -2.645,1.184 -2.645,2.649c0,1.461 1.184,2.645 2.645,2.645Z" style="fill:#02f6b6;fill-rule:nonzero;"/><path d="M228.144,216.905c1.46,0 2.645,-1.184 2.645,-2.645c0,-1.465 -1.185,-2.649 -2.645,-2.649c-1.461,0 -2.65,1.184 -2.65,2.649c0,1.461 1.189,2.645 2.65,2.645Z" style="fill:#02f6b6;fill-rule:nonzero;"/><path d="M242.188,216.905c1.461,0 2.65,-1.184 2.65,-2.645c0,-1.465 -1.189,-2.649 -2.65,-2.649c-1.465,0 -2.649,1.184 -2.649,2.649c0,1.461 1.184,2.645 2.649,2.645Z" style="fill:#02f6b6;fill-rule:nonzero;"/><path d="M256.228,216.905c1.466,0 2.65,-1.184 2.65,-2.645c0,-1.465 -1.184,-2.649 -2.65,-2.649c-1.456,0 -2.645,1.184 -2.645,2.649c0,1.461 1.189,2.645 2.645,2.645Z" style="fill:#02f6b6;fill-rule:nonzero;"/><path d="M270.273,216.905c1.465,0 2.65,-1.184 2.65,-2.645c0,-1.465 -1.185,-2.649 -2.65,-2.649c-1.461,0 -2.645,1.184 -2.645,2.649c0,1.461 1.184,2.645 2.645,2.645Z" style="fill:#02f6b6;fill-rule:nonzero;"/><path d="M45.573,230.95c1.461,0 2.645,-1.184 2.645,-2.645c0,-1.466 -1.184,-2.65 -2.645,-2.65c-1.461,0 -2.65,1.184 -2.65,2.65c0,1.461 1.189,2.645 2.65,2.645Z" style="fill:#02f6b6;fill-rule:nonzero;"/><path d="M59.618,230.95c1.465,0 2.649,-1.184 2.649,-2.645c0,-1.466 -1.184,-2.65 -2.649,-2.65c-1.466,0 -2.65,1.184 -2.65,2.65c0,1.461 1.184,2.645 2.65,2.645Z" style="fill:#02f6b6;fill-rule:nonzero;"/><path d="M73.657,230.95c1.466,0 2.65,-1.184 2.65,-2.645c0,-1.466 -1.184,-2.65 -2.65,-2.65c-1.456,0 -2.644,1.184 -2.644,2.65c0,1.461 1.188,2.645 2.644,2.645Z" style="fill:#02f6b6;fill-rule:nonzero;"/><path d="M87.707,230.95c1.461,0 2.645,-1.184 2.645,-2.645c0,-1.466 -1.184,-2.65 -2.645,-2.65c-1.466,0 -2.65,1.184 -2.65,2.65c0,1.461 1.184,2.645 2.65,2.645Z" style="fill:#02f6b6;fill-rule:nonzero;"/><path d="M101.747,230.95c1.46,0 2.649,-1.184 2.649,-2.645c0,-1.466 -1.189,-2.65 -2.649,-2.65c-1.461,0 -2.645,1.184 -2.645,2.65c0,1.461 1.184,2.645 2.645,2.645Z" style="fill:#02f6b6;fill-rule:nonzero;"/><path d="M115.791,230.95c1.466,0 2.65,-1.184 2.65,-2.645c0,-1.466 -1.184,-2.65 -2.65,-2.65c-1.46,0 -2.649,1.184 -2.649,2.65c0,1.461 1.189,2.645 2.649,2.645Z" style="fill:#02f6b6;fill-rule:nonzero;"/><path d="M129.836,230.95c1.461,0 2.645,-1.184 2.645,-2.645c0,-1.466 -1.184,-2.65 -2.645,-2.65c-1.461,0 -2.645,1.184 -2.645,2.65c0,1.461 1.184,2.645 2.645,2.645Z" style="fill:#02f6b6;fill-rule:nonzero;"/><path d="M143.881,230.95c1.46,0 2.649,-1.184 2.649,-2.645c0,-1.466 -1.189,-2.65 -2.649,-2.65c-1.466,0 -2.65,1.184 -2.65,2.65c0,1.461 1.184,2.645 2.65,2.645Z" style="fill:#02f6b6;fill-rule:nonzero;"/><path d="M157.925,230.95c1.461,0 2.65,-1.184 2.65,-2.645c0,-1.466 -1.189,-2.65 -2.65,-2.65c-1.465,0 -2.649,1.184 -2.649,2.65c0,1.461 1.184,2.645 2.649,2.645Z" style="fill:#02f6b6;fill-rule:nonzero;"/><path d="M171.965,230.95c1.466,0 2.65,-1.184 2.65,-2.645c0,-1.466 -1.184,-2.65 -2.65,-2.65c-1.461,0 -2.645,1.184 -2.645,2.65c0,1.461 1.184,2.645 2.645,2.645Z" style="fill:#02f6b6;fill-rule:nonzero;"/><path d="M186.015,230.95c1.46,0 2.644,-1.184 2.644,-2.645c0,-1.466 -1.184,-2.65 -2.644,-2.65c-1.466,0 -2.65,1.184 -2.65,2.65c0,1.461 1.184,2.645 2.65,2.645Z" style="fill:#02f6b6;fill-rule:nonzero;"/><path d="M200.054,230.95c1.466,0 2.65,-1.184 2.65,-2.645c0,-1.466 -1.184,-2.65 -2.65,-2.65c-1.46,0 -2.649,1.184 -2.649,2.65c0,1.461 1.189,2.645 2.649,2.645Z" style="fill:#02f6b6;fill-rule:nonzero;"/><path d="M214.099,230.95c1.466,0 2.65,-1.184 2.65,-2.645c0,-1.466 -1.184,-2.65 -2.65,-2.65c-1.461,0 -2.645,1.184 -2.645,2.65c0,1.461 1.184,2.645 2.645,2.645Z" style="fill:#02f6b6;fill-rule:nonzero;"/><path d="M228.144,230.95c1.46,0 2.645,-1.184 2.645,-2.645c0,-1.466 -1.185,-2.65 -2.645,-2.65c-1.461,0 -2.65,1.184 -2.65,2.65c0,1.461 1.189,2.645 2.65,2.645Z" style="fill:#02f6b6;fill-rule:nonzero;"/><path d="M242.188,230.95c1.461,0 2.65,-1.184 2.65,-2.645c0,-1.466 -1.189,-2.65 -2.65,-2.65c-1.465,0 -2.649,1.184 -2.649,2.65c0,1.461 1.184,2.645 2.649,2.645Z" style="fill:#02f6b6;fill-rule:nonzero;"/><path d="M256.228,230.95c1.466,0 2.65,-1.184 2.65,-2.645c0,-1.466 -1.184,-2.65 -2.65,-2.65c-1.456,0 -2.645,1.184 -2.645,2.65c0,1.461 1.189,2.645 2.645,2.645Z" style="fill:#02f6b6;fill-rule:nonzero;"/><path d="M270.273,230.95c1.465,0 2.65,-1.184 2.65,-2.645c0,-1.466 -1.185,-2.65 -2.65,-2.65c-1.461,0 -2.645,1.184 -2.645,2.65c0,1.461 1.184,2.645 2.645,2.645Z" style="fill:#02f6b6;fill-rule:nonzero;"/><path d="M31.528,244.995c1.461,0 2.65,-1.185 2.65,-2.645c0,-1.466 -1.189,-2.65 -2.65,-2.65c-1.461,0 -2.645,1.184 -2.645,2.65c0,1.46 1.184,2.645 2.645,2.645Z" style="fill:#02f6b6;fill-rule:nonzero;"/><path d="M45.573,244.995c1.461,0 2.645,-1.185 2.645,-2.645c0,-1.466 -1.184,-2.65 -2.645,-2.65c-1.461,0 -2.65,1.184 -2.65,2.65c0,1.46 1.189,2.645 2.65,2.645Z" style="fill:#02f6b6;fill-rule:nonzero;"/><path d="M59.618,244.995c1.465,0 2.649,-1.185 2.649,-2.645c0,-1.466 -1.184,-2.65 -2.649,-2.65c-1.466,0 -2.65,1.184 -2.65,2.65c0,1.46 1.184,2.645 2.65,2.645Z" style="fill:#02f6b6;fill-rule:nonzero;"/><path d="M73.657,244.995c1.466,0 2.65,-1.185 2.65,-2.645c0,-1.466 -1.184,-2.65 -2.65,-2.65c-1.456,0 -2.644,1.184 -2.644,2.65c0,1.46 1.188,2.645 2.644,2.645Z" style="fill:#02f6b6;fill-rule:nonzero;"/><path d="M87.707,244.995c1.461,0 2.645,-1.185 2.645,-2.645c0,-1.466 -1.184,-2.65 -2.645,-2.65c-1.466,0 -2.65,1.184 -2.65,2.65c0,1.46 1.184,2.645 2.65,2.645Z" style="fill:#02f6b6;fill-rule:nonzero;"/><path d="M101.747,244.995c1.46,0 2.649,-1.185 2.649,-2.645c0,-1.466 -1.189,-2.65 -2.649,-2.65c-1.461,0 -2.645,1.184 -2.645,2.65c0,1.46 1.184,2.645 2.645,2.645Z" style="fill:#02f6b6;fill-rule:nonzero;"/><path d="M115.791,244.995c1.466,0 2.65,-1.185 2.65,-2.645c0,-1.466 -1.184,-2.65 -2.65,-2.65c-1.46,0 -2.649,1.184 -2.649,2.65c0,1.46 1.189,2.645 2.649,2.645Z" style="fill:#02f6b6;fill-rule:nonzero;"/><path d="M129.836,244.995c1.461,0 2.645,-1.185 2.645,-2.645c0,-1.466 -1.184,-2.65 -2.645,-2.65c-1.461,0 -2.645,1.184 -2.645,2.65c0,1.46 1.184,2.645 2.645,2.645Z" style="fill:#02f6b6;fill-rule:nonzero;"/><path d="M143.881,244.995c1.46,0 2.649,-1.185 2.649,-2.645c0,-1.466 -1.189,-2.65 -2.649,-2.65c-1.466,0 -2.65,1.184 -2.65,2.65c0,1.46 1.184,2.645 2.65,2.645Z" style="fill:#02f6b6;fill-rule:nonzero;"/><path d="M157.925,244.995c1.461,0 2.65,-1.185 2.65,-2.645c0,-1.466 -1.189,-2.65 -2.65,-2.65c-1.465,0 -2.649,1.184 -2.649,2.65c0,1.46 1.184,2.645 2.649,2.645Z" style="fill:#02f6b6;fill-rule:nonzero;"/><path d="M171.965,244.995c1.466,0 2.65,-1.185 2.65,-2.645c0,-1.466 -1.184,-2.65 -2.65,-2.65c-1.461,0 -2.645,1.184 -2.645,2.65c0,1.46 1.184,2.645 2.645,2.645Z" style="fill:#02f6b6;fill-rule:nonzero;"/><path d="M186.015,244.995c1.46,0 2.644,-1.185 2.644,-2.645c0,-1.466 -1.184,-2.65 -2.644,-2.65c-1.466,0 -2.65,1.184 -2.65,2.65c0,1.46 1.184,2.645 2.65,2.645Z" style="fill:#02f6b6;fill-rule:nonzero;"/><path d="M200.054,244.995c1.466,0 2.65,-1.185 2.65,-2.645c0,-1.466 -1.184,-2.65 -2.65,-2.65c-1.46,0 -2.649,1.184 -2.649,2.65c0,1.46 1.189,2.645 2.649,2.645Z" style="fill:#02f6b6;fill-rule:nonzero;"/><path d="M214.099,244.995c1.466,0 2.65,-1.185 2.65,-2.645c0,-1.466 -1.184,-2.65 -2.65,-2.65c-1.461,0 -2.645,1.184 -2.645,2.65c0,1.46 1.184,2.645 2.645,2.645Z" style="fill:#02f6b6;fill-rule:nonzero;"/><path d="M228.144,244.995c1.46,0 2.645,-1.185 2.645,-2.645c0,-1.466 -1.185,-2.65 -2.645,-2.65c-1.461,0 -2.65,1.184 -2.65,2.65c0,1.46 1.189,2.645 2.65,2.645Z" style="fill:#02f6b6;fill-rule:nonzero;"/><path d="M242.188,244.995c1.461,0 2.65,-1.185 2.65,-2.645c0,-1.466 -1.189,-2.65 -2.65,-2.65c-1.465,0 -2.649,1.184 -2.649,2.65c0,1.46 1.184,2.645 2.649,2.645Z" style="fill:#02f6b6;fill-rule:nonzero;"/><path d="M256.228,244.995c1.466,0 2.65,-1.185 2.65,-2.645c0,-1.466 -1.184,-2.65 -2.65,-2.65c-1.456,0 -2.645,1.184 -2.645,2.65c0,1.46 1.189,2.645 2.645,2.645Z" style="fill:#02f6b6;fill-rule:nonzero;"/><path d="M270.273,244.995c1.465,0 2.65,-1.185 2.65,-2.645c0,-1.466 -1.185,-2.65 -2.65,-2.65c-1.461,0 -2.645,1.184 -2.645,2.65c0,1.46 1.184,2.645 2.645,2.645Z" style="fill:#02f6b6;fill-rule:nonzero;"/><path d="M17.484,259.039c1.465,0 2.649,-1.184 2.649,-2.65c0,-1.46 -1.184,-2.644 -2.649,-2.644c-1.466,0 -2.65,1.184 -2.65,2.644c0,1.466 1.184,2.65 2.65,2.65Z" style="fill:#02f6b6;fill-rule:nonzero;"/><path d="M31.528,259.039c1.461,0 2.65,-1.184 2.65,-2.65c0,-1.46 -1.189,-2.644 -2.65,-2.644c-1.461,0 -2.645,1.184 -2.645,2.644c0,1.466 1.184,2.65 2.645,2.65Z" style="fill:#02f6b6;fill-rule:nonzero;"/><path d="M45.573,259.039c1.461,0 2.645,-1.184 2.645,-2.65c0,-1.46 -1.184,-2.644 -2.645,-2.644c-1.461,0 -2.65,1.184 -2.65,2.644c0,1.466 1.189,2.65 2.65,2.65Z" style="fill:#02f6b6;fill-rule:nonzero;"/><path d="M59.618,259.039c1.465,0 2.649,-1.184 2.649,-2.65c0,-1.46 -1.184,-2.644 -2.649,-2.644c-1.466,0 -2.65,1.184 -2.65,2.644c0,1.466 1.184,2.65 2.65,2.65Z" style="fill:#02f6b6;fill-rule:nonzero;"/><path d="M73.657,259.039c1.466,0 2.65,-1.184 2.65,-2.65c0,-1.46 -1.184,-2.644 -2.65,-2.644c-1.456,0 -2.644,1.184 -2.644,2.644c0,1.466 1.188,2.65 2.644,2.65Z" style="fill:#02f6b6;fill-rule:nonzero;"/><path d="M87.707,259.039c1.461,0 2.645,-1.184 2.645,-2.65c0,-1.46 -1.184,-2.644 -2.645,-2.644c-1.466,0 -2.65,1.184 -2.65,2.644c0,1.466 1.184,2.65 2.65,2.65Z" style="fill:#02f6b6;fill-rule:nonzero;"/><path d="M101.747,259.039c1.46,0 2.649,-1.184 2.649,-2.65c0,-1.46 -1.189,-2.644 -2.649,-2.644c-1.461,0 -2.645,1.184 -2.645,2.644c0,1.466 1.184,2.65 2.645,2.65Z" style="fill:#02f6b6;fill-rule:nonzero;"/><path d="M115.791,259.039c1.466,0 2.65,-1.184 2.65,-2.65c0,-1.46 -1.184,-2.644 -2.65,-2.644c-1.46,0 -2.649,1.184 -2.649,2.644c0,1.466 1.189,2.65 2.649,2.65Z" style="fill:#02f6b6;fill-rule:nonzero;"/><path d="M129.836,259.039c1.461,0 2.645,-1.184 2.645,-2.65c0,-1.46 -1.184,-2.644 -2.645,-2.644c-1.461,0 -2.645,1.184 -2.645,2.644c0,1.466 1.184,2.65 2.645,2.65Z" style="fill:#02f6b6;fill-rule:nonzero;"/><path d="M143.881,259.039c1.46,0 2.649,-1.184 2.649,-2.65c0,-1.46 -1.189,-2.644 -2.649,-2.644c-1.466,0 -2.65,1.184 -2.65,2.644c0,1.466 1.184,2.65 2.65,2.65Z" style="fill:#02f6b6;fill-rule:nonzero;"/><path d="M157.925,259.039c1.461,0 2.65,-1.184 2.65,-2.65c0,-1.46 -1.189,-2.644 -2.65,-2.644c-1.465,0 -2.649,1.184 -2.649,2.644c0,1.466 1.184,2.65 2.649,2.65Z" style="fill:#02f6b6;fill-rule:nonzero;"/><path d="M171.965,259.039c1.466,0 2.65,-1.184 2.65,-2.65c0,-1.46 -1.184,-2.644 -2.65,-2.644c-1.461,0 -2.645,1.184 -2.645,2.644c0,1.466 1.184,2.65 2.645,2.65Z" style="fill:#02f6b6;fill-rule:nonzero;"/><path d="M186.015,259.039c1.46,0 2.644,-1.184 2.644,-2.65c0,-1.46 -1.184,-2.644 -2.644,-2.644c-1.466,0 -2.65,1.184 -2.65,2.644c0,1.466 1.184,2.65 2.65,2.65Z" style="fill:#02f6b6;fill-rule:nonzero;"/><path d="M200.054,259.039c1.466,0 2.65,-1.184 2.65,-2.65c0,-1.46 -1.184,-2.644 -2.65,-2.644c-1.46,0 -2.649,1.184 -2.649,2.644c0,1.466 1.189,2.65 2.649,2.65Z" style="fill:#02f6b6;fill-rule:nonzero;"/><path d="M214.099,259.039c1.466,0 2.65,-1.184 2.65,-2.65c0,-1.46 -1.184,-2.644 -2.65,-2.644c-1.461,0 -2.645,1.184 -2.645,2.644c0,1.466 1.184,2.65 2.645,2.65Z" style="fill:#02f6b6;fill-rule:nonzero;"/><path d="M228.144,259.039c1.46,0 2.645,-1.184 2.645,-2.65c0,-1.46 -1.185,-2.644 -2.645,-2.644c-1.461,0 -2.65,1.184 -2.65,2.644c0,1.466 1.189,2.65 2.65,2.65Z" style="fill:#02f6b6;fill-rule:nonzero;"/><path d="M242.188,259.039c1.461,0 2.65,-1.184 2.65,-2.65c0,-1.46 -1.189,-2.644 -2.65,-2.644c-1.465,0 -2.649,1.184 -2.649,2.644c0,1.466 1.184,2.65 2.649,2.65Z" style="fill:#02f6b6;fill-rule:nonzero;"/><path d="M256.228,259.039c1.466,0 2.65,-1.184 2.65,-2.65c0,-1.46 -1.184,-2.644 -2.65,-2.644c-1.456,0 -2.645,1.184 -2.645,2.644c0,1.466 1.189,2.65 2.645,2.65Z" style="fill:#02f6b6;fill-rule:nonzero;"/><path d="M270.273,259.039c1.465,0 2.65,-1.184 2.65,-2.65c0,-1.46 -1.185,-2.644 -2.65,-2.644c-1.461,0 -2.645,1.184 -2.645,2.644c0,1.466 1.184,2.65 2.645,2.65Z" style="fill:#02f6b6;fill-rule:nonzero;"/><path d="M3.444,273.084c1.456,0 2.65,-1.184 2.65,-2.65c0,-1.461 -1.194,-2.65 -2.65,-2.65c-1.466,0 -2.65,1.189 -2.65,2.65c0,1.466 1.184,2.65 2.65,2.65Z" style="fill:#02f6b6;fill-rule:nonzero;"/><path d="M17.484,273.084c1.465,0 2.649,-1.184 2.649,-2.65c0,-1.461 -1.184,-2.65 -2.649,-2.65c-1.466,0 -2.65,1.189 -2.65,2.65c0,1.466 1.184,2.65 2.65,2.65Z" style="fill:#02f6b6;fill-rule:nonzero;"/><path d="M31.528,273.084c1.461,0 2.65,-1.184 2.65,-2.65c0,-1.461 -1.189,-2.65 -2.65,-2.65c-1.461,0 -2.645,1.189 -2.645,2.65c0,1.466 1.184,2.65 2.645,2.65Z" style="fill:#02f6b6;fill-rule:nonzero;"/><path d="M45.573,273.084c1.461,0 2.645,-1.184 2.645,-2.65c0,-1.461 -1.184,-2.65 -2.645,-2.65c-1.461,0 -2.65,1.189 -2.65,2.65c0,1.466 1.189,2.65 2.65,2.65Z" style="fill:#02f6b6;fill-rule:nonzero;"/><path d="M59.618,273.084c1.465,0 2.649,-1.184 2.649,-2.65c0,-1.461 -1.184,-2.65 -2.649,-2.65c-1.466,0 -2.65,1.189 -2.65,2.65c0,1.466 1.184,2.65 2.65,2.65Z" style="fill:#02f6b6;fill-rule:nonzero;"/><path d="M73.657,273.084c1.466,0 2.65,-1.184 2.65,-2.65c0,-1.461 -1.184,-2.65 -2.65,-2.65c-1.456,0 -2.644,1.189 -2.644,2.65c0,1.466 1.188,2.65 2.644,2.65Z" style="fill:#02f6b6;fill-rule:nonzero;"/><path d="M87.707,273.084c1.461,0 2.645,-1.184 2.645,-2.65c0,-1.461 -1.184,-2.65 -2.645,-2.65c-1.466,0 -2.65,1.189 -2.65,2.65c0,1.466 1.184,2.65 2.65,2.65Z" style="fill:#02f6b6;fill-rule:nonzero;"/><path d="M101.747,273.084c1.46,0 2.649,-1.184 2.649,-2.65c0,-1.461 -1.189,-2.65 -2.649,-2.65c-1.461,0 -2.645,1.189 -2.645,2.65c0,1.466 1.184,2.65 2.645,2.65Z" style="fill:#02f6b6;fill-rule:nonzero;"/><path d="M115.791,273.084c1.466,0 2.65,-1.184 2.65,-2.65c0,-1.461 -1.184,-2.65 -2.65,-2.65c-1.46,0 -2.649,1.189 -2.649,2.65c0,1.466 1.189,2.65 2.649,2.65Z" style="fill:#02f6b6;fill-rule:nonzero;"/><path d="M129.836,273.084c1.461,0 2.645,-1.184 2.645,-2.65c0,-1.461 -1.184,-2.65 -2.645,-2.65c-1.461,0 -2.645,1.189 -2.645,2.65c0,1.466 1.184,2.65 2.645,2.65Z" style="fill:#02f6b6;fill-rule:nonzero;"/><path d="M143.881,273.084c1.46,0 2.649,-1.184 2.649,-2.65c0,-1.461 -1.189,-2.65 -2.649,-2.65c-1.466,0 -2.65,1.189 -2.65,2.65c0,1.466 1.184,2.65 2.65,2.65Z" style="fill:#02f6b6;fill-rule:nonzero;"/><path d="M157.925,273.084c1.461,0 2.65,-1.184 2.65,-2.65c0,-1.461 -1.189,-2.65 -2.65,-2.65c-1.465,0 -2.649,1.189 -2.649,2.65c0,1.466 1.184,2.65 2.649,2.65Z" style="fill:#02f6b6;fill-rule:nonzero;"/><path d="M171.965,273.084c1.466,0 2.65,-1.184 2.65,-2.65c0,-1.461 -1.184,-2.65 -2.65,-2.65c-1.461,0 -2.645,1.189 -2.645,2.65c0,1.466 1.184,2.65 2.645,2.65Z" style="fill:#02f6b6;fill-rule:nonzero;"/><path d="M186.015,273.084c1.46,0 2.644,-1.184 2.644,-2.65c0,-1.461 -1.184,-2.65 -2.644,-2.65c-1.466,0 -2.65,1.189 -2.65,2.65c0,1.466 1.184,2.65 2.65,2.65Z" style="fill:#02f6b6;fill-rule:nonzero;"/><path d="M200.054,273.084c1.466,0 2.65,-1.184 2.65,-2.65c0,-1.461 -1.184,-2.65 -2.65,-2.65c-1.46,0 -2.649,1.189 -2.649,2.65c0,1.466 1.189,2.65 2.649,2.65Z" style="fill:#02f6b6;fill-rule:nonzero;"/><path d="M214.099,273.084c1.466,0 2.65,-1.184 2.65,-2.65c0,-1.461 -1.184,-2.65 -2.65,-2.65c-1.461,0 -2.645,1.189 -2.645,2.65c0,1.466 1.184,2.65 2.645,2.65Z" style="fill:#02f6b6;fill-rule:nonzero;"/><path d="M228.144,273.084c1.46,0 2.645,-1.184 2.645,-2.65c0,-1.461 -1.185,-2.65 -2.645,-2.65c-1.461,0 -2.65,1.189 -2.65,2.65c0,1.466 1.189,2.65 2.65,2.65Z" style="fill:#02f6b6;fill-rule:nonzero;"/><path d="M242.188,273.084c1.461,0 2.65,-1.184 2.65,-2.65c0,-1.461 -1.189,-2.65 -2.65,-2.65c-1.465,0 -2.649,1.189 -2.649,2.65c0,1.466 1.184,2.65 2.649,2.65Z" style="fill:#02f6b6;fill-rule:nonzero;"/><path d="M256.228,273.084c1.466,0 2.65,-1.184 2.65,-2.65c0,-1.461 -1.184,-2.65 -2.65,-2.65c-1.456,0 -2.645,1.189 -2.645,2.65c0,1.466 1.189,2.65 2.645,2.65Z" style="fill:#02f6b6;fill-rule:nonzero;"/><path d="M270.273,273.084c1.465,0 2.65,-1.184 2.65,-2.65c0,-1.461 -1.185,-2.65 -2.65,-2.65c-1.461,0 -2.645,1.189 -2.645,2.65c0,1.466 1.184,2.65 2.645,2.65Z" style="fill:#02f6b6;fill-rule:nonzero;"/></g></svg>