<?xml version="1.0" encoding="UTF-8" standalone="no"?><!DOCTYPE svg PUBLIC "-//W3C//DTD SVG 1.1//EN" "http://www.w3.org/Graphics/SVG/1.1/DTD/svg11.dtd"><svg width="100%" height="100%" viewBox="0 0 265 271" version="1.1" xmlns="http://www.w3.org/2000/svg" xmlns:xlink="http://www.w3.org/1999/xlink" xml:space="preserve" xmlns:serif="http://www.serif.com/" style="fill-rule:evenodd;clip-rule:evenodd;stroke-linejoin:round;stroke-miterlimit:2;"><g><path d="M199.954,266.495c0.676,1.2 1.37,2.394 2.059,3.589l6.156,0c-1.208,-2.063 -2.398,-4.13 -3.557,-6.197c-16.854,-30.152 -16.939,-66.103 -0.21,-96.161c4.492,-8.071 9.499,-16.129 14.34,-23.919c15.646,-25.203 30.443,-49.033 30.443,-74.742c0,-0.488 -0.005,-0.971 -0.018,-1.459c-0.331,-14.474 -5.249,-28.206 -12.242,-41.883l-3.982,3.977c6.269,12.559 10.595,25.087 10.895,38.027c0.456,24.666 -14.116,48.282 -29.633,73.266c-4.868,7.843 -9.906,15.955 -14.465,24.138c-17.633,31.691 -17.548,69.579 0.214,101.364Zm-157.847,0c0.672,1.2 1.374,2.394 2.059,3.589l6.161,0c-1.209,-2.063 -2.403,-4.13 -3.562,-6.197c-6.38,-11.409 -10.344,-23.651 -11.915,-36.089l-4.671,4.671c1.955,11.722 5.893,23.23 11.928,34.026Zm118.385,0c0.671,1.2 1.373,2.394 2.062,3.589l6.157,0c-1.213,-2.063 -2.403,-4.13 -3.562,-6.197c-16.854,-30.152 -16.935,-66.103 -0.21,-96.161c4.497,-8.071 9.499,-16.129 14.34,-23.919c15.646,-25.203 30.447,-49.033 30.447,-74.742c0,-0.488 -0.004,-0.971 -0.018,-1.459c-0.098,-4.438 -0.648,-8.805 -1.543,-13.123l-4.577,4.582c0.447,2.868 0.72,5.754 0.792,8.662c0.501,24.666 -14.121,48.282 -29.633,73.266c-4.873,7.843 -9.911,15.955 -14.47,24.138c-17.629,31.691 -17.548,69.584 0.215,101.364Zm19.731,0c0.676,1.2 1.369,2.394 2.058,3.589l6.161,0c-1.212,-2.063 -2.402,-4.13 -3.561,-6.197c-16.855,-30.152 -16.935,-66.098 -0.211,-96.161c4.497,-8.071 9.499,-16.129 14.336,-23.919c15.655,-25.203 30.447,-49.033 30.452,-74.742c0,-0.488 -0.009,-0.971 -0.018,-1.459c-0.228,-9.7 -2.515,-19.06 -6.099,-28.3l-4.161,4.157c2.904,8 4.738,16.049 4.926,24.264c0.519,24.666 -14.116,48.282 -29.628,73.266c-4.872,7.843 -9.91,15.955 -14.47,24.138c-17.633,31.691 -17.548,69.584 0.215,101.364Zm77.812,-261.882c2.282,3.682 4.519,7.333 6.657,10.971l0,-10.344c-0.921,-1.499 -1.847,-2.998 -2.783,-4.502l-3.874,3.875Zm-235.655,261.882c0.667,1.2 1.37,2.394 2.059,3.589l6.156,0c-1.212,-2.063 -2.403,-4.13 -3.561,-6.197c-3.575,-6.394 -6.349,-13.056 -8.412,-19.861l-4.282,4.282c2.081,6.219 4.752,12.308 8.04,18.187Zm-17.673,3.589l6.157,0c-1.213,-2.063 -2.399,-4.13 -3.557,-6.197c-1.043,-1.852 -2.009,-3.727 -2.922,-5.624l-3.951,3.955c0.716,1.432 1.428,2.868 2.215,4.277c0.671,1.2 1.365,2.394 2.058,3.589Zm214.983,-3.589c0.667,1.2 1.365,2.394 2.059,3.589l6.152,0c-1.208,-2.063 -2.403,-4.13 -3.557,-6.197c-16.859,-30.152 -16.94,-66.103 -0.211,-96.161c4.497,-8.071 9.504,-16.129 14.34,-23.923c10.564,-17.012 20.72,-33.405 26.219,-50.166l0,-49.114c-3.503,-10.617 -8.89,-21.02 -15.055,-31.512l-3.907,3.906c9.83,16.904 17.437,33.49 17.835,50.81c0.506,24.68 -14.112,48.277 -29.624,73.261c-4.873,7.848 -9.911,15.96 -14.47,24.143c-17.633,31.691 -17.552,69.579 0.219,101.364Zm-157.851,0c0.675,1.2 1.369,2.394 2.058,3.589l6.157,0c-1.209,-2.063 -2.399,-4.13 -3.558,-6.197c-9.655,-17.266 -13.78,-36.438 -12.42,-55.315l-5.57,5.57c-0.247,17.951 4.17,35.96 13.333,52.353Zm177.578,0c0.671,1.2 1.369,2.394 2.063,3.589l6.157,0c-1.213,-2.063 -2.403,-4.13 -3.562,-6.197c-16.859,-30.152 -16.939,-66.103 -0.21,-96.161c4.496,-8.071 9.499,-16.129 14.335,-23.919c2.197,-3.535 4.372,-7.042 6.492,-10.532l0,-10.43c-3.481,5.991 -7.226,12.027 -11.024,18.148c-4.873,7.843 -9.911,15.955 -14.465,24.138c-17.633,31.691 -17.553,69.579 0.214,101.364Zm19.732,0c0.671,1.2 1.369,2.394 2.058,3.589l3.485,0l0,-4.649c-0.29,-0.514 -0.599,-1.029 -0.886,-1.548c-16.859,-30.152 -16.939,-66.103 -0.214,-96.161c0.358,-0.639 0.738,-1.279 1.1,-1.919l0,-10.595c-1.964,3.289 -3.91,6.595 -5.762,9.919c-17.629,31.691 -17.548,69.579 0.219,101.364Zm-157.847,0c0.671,1.2 1.369,2.394 2.062,3.589l6.157,0c-1.213,-2.063 -2.407,-4.13 -3.562,-6.197c-16.859,-30.152 -16.939,-66.103 -0.21,-96.161c4.497,-8.071 9.499,-16.129 14.336,-23.919c0.68,-1.096 1.36,-2.188 2.031,-3.275l-16.139,16.139c-1.669,2.809 -3.315,5.624 -4.89,8.46c-17.633,31.691 -17.553,69.579 0.215,101.364Zm39.463,0c0.666,1.2 1.369,2.394 2.058,3.589l6.156,0c-1.212,-2.063 -2.402,-4.13 -3.557,-6.197c-16.863,-30.152 -16.939,-66.103 -0.214,-96.161c4.496,-8.071 9.498,-16.129 14.339,-23.919c14.891,-23.982 28.985,-46.724 30.318,-71.024l-6.009,6.009c-3.172,20.733 -15.66,40.975 -28.845,62.201c-4.864,7.843 -9.902,15.955 -14.466,24.138c-17.628,31.691 -17.552,69.579 0.22,101.364Zm-19.732,0c0.671,1.2 1.369,2.394 2.058,3.589l6.161,0c-1.217,-2.063 -2.402,-4.13 -3.561,-6.197c-16.859,-30.152 -16.94,-66.103 -0.21,-96.161c4.496,-8.071 9.498,-16.129 14.335,-23.919c9.597,-15.459 18.863,-30.398 24.6,-45.575l-10.421,10.421c-5.262,10.653 -11.893,21.364 -18.711,32.34c-4.873,7.843 -9.911,15.955 -14.466,24.138c-17.637,31.691 -17.552,69.579 0.215,101.364Zm-39.463,0c0.671,1.2 1.369,2.394 2.058,3.589l6.157,0c-1.208,-2.063 -2.403,-4.13 -3.557,-6.197c-13.951,-24.953 -16.376,-53.87 -7.324,-80.138l-7.835,7.83c-6.004,25.024 -2.528,51.61 10.501,74.916Z" style="fill:#02f6b6;fill-rule:nonzero;"/></g></svg>