<svg xmlns="http://www.w3.org/2000/svg" id="fb" width="29.92" height="29.92" viewBox="0 0 29.92 29.92">
    <defs>
        <style>
            .cls-1{fill:none;stroke:#02f6b6;stroke-miterlimit:10}.cls-2{fill:#02f6b6}
        </style>
    </defs>
    <path id="Path_877" d="M8.5.5h20.92v20.92a8 8 0 0 1-8 8H9.5a9 9 0 0 1-9-9V8.5a8 8 0 0 1 8-8z" class="cls-1" data-name="Path 877"/>
    <path id="Path_878" d="M18.11 8.66h-1.63a2.87 2.87 0 0 0-3 3.1v1.43h-1.67a.26.26 0 0 0-.26.26v2.07a.26.26 0 0 0 .26.26h1.64V21a.26.26 0 0 0 .26.25h2.14a.25.25 0 0 0 .26-.25v-5.22H18a.26.26 0 0 0 .26-.26v-2.07a.24.24 0 0 0-.26-.26h-1.89V12c0-.59.14-.88.9-.88h1.1a.26.26 0 0 0 .26-.26V8.92a.26.26 0 0 0-.26-.26zm0 0" class="cls-2" data-name="Path 878"/>
</svg>
