<svg xmlns="http://www.w3.org/2000/svg" id="ig" width="29.92" height="29.92" viewBox="0 0 29.92 29.92">
    <defs>
        <style>
            .cls-1{fill:none;stroke:#02f6b6;stroke-miterlimit:10}.cls-2{fill:#02f6b6}
        </style>
    </defs>
    <path id="Path_881" d="M8.5.5h20.92v20.92a8 8 0 0 1-8 8H9.5a9 9 0 0 1-9-9V8.5a8 8 0 0 1 8-8z" class="cls-1" data-name="Path 881"/>
    <path id="Path_882" d="M18.1 7h-5.74a4.78 4.78 0 0 0-4.78 4.8v5.74a4.78 4.78 0 0 0 4.78 4.78h5.74a4.78 4.78 0 0 0 4.78-4.78V11.8A4.78 4.78 0 0 0 18.1 7zm3.35 10.52a3.35 3.35 0 0 1-3.35 3.34h-5.74A3.35 3.35 0 0 1 9 17.54V11.8a3.35 3.35 0 0 1 3.34-3.35h5.76a3.36 3.36 0 0 1 3.35 3.35z" class="cls-2" data-name="Path 882"/>
    <path id="Path_883" d="M15.23 10.84a3.83 3.83 0 1 0 3.83 3.83 3.83 3.83 0 0 0-3.83-3.83zm0 6.22a2.39 2.39 0 1 1 2.39-2.39 2.39 2.39 0 0 1-2.39 2.39z" class="cls-2" data-name="Path 883"/>
    <circle id="Ellipse_18" cx=".51" cy=".51" r=".51" class="cls-2" data-name="Ellipse 18" transform="translate(18.83 10.05)"/>
</svg>
