<svg xmlns="http://www.w3.org/2000/svg" id="in" width="29.92" height="29.92" viewBox="0 0 29.92 29.92">
    <defs>
        <style>
            .cls-1{fill:#02f6b6}.cls-2{fill:none;stroke:#02f6b6;stroke-miterlimit:10}
        </style>
    </defs>
    <path id="Path_879" d="M20.05 8.59H9.87a1.28 1.28 0 0 0-1.28 1.28v10.18a1.28 1.28 0 0 0 1.28 1.28h10.18a1.29 1.29 0 0 0 1.28-1.28V9.87a1.28 1.28 0 0 0-1.28-1.28zm-7.64 10.83H10.5v-5.74h1.91zm-.95-6.82a1.15 1.15 0 1 1 1.14-1.14 1.15 1.15 0 0 1-1.14 1.14zm8 6.82h-1.95V16a1 1 0 0 0-1.91 0v3.38h-1.92v-5.7h1.92v.77a2 2 0 0 1 1.59-.89 2.26 2.26 0 0 1 2.23 2.23zm0 0" class="cls-1" data-name="Path 879"/>
    <path id="Path_880" d="M8.5.5h20.92v20.92a8 8 0 0 1-8 8H9.5a9 9 0 0 1-9-9V8.5a8 8 0 0 1 8-8z" class="cls-2" data-name="Path 880"/>
</svg>
