<svg xmlns="http://www.w3.org/2000/svg" width="62.968" height="72.83" viewBox="0 0 62.968 72.83">
    <defs>
        <style>
            .cls-1{fill:none;stroke:#fff;stroke-miterlimit:10;stroke-width:2px}.cls-2{fill:#fff}
        </style>
    </defs>
    <g id="JOIN_US_AND_DOWN_ARROW" data-name="JOIN US AND DOWN ARROW" transform="translate(-14.323 -9.445)">
        <g id="Arrow">
            <path id="Path_495" d="M45.884 54.951l8.8-15.247H37.081z" class="cls-1" data-name="Path 495"/>
        </g>
        <g id="NEXT_1" data-name="NEXT 1">
            <path id="Path_496" d="M14.323 27.7l.811-1.527 5.49 2.907a2.892 2.892 0 0 1 .916.762 2.77 2.77 0 0 1 .5 1 2.963 2.963 0 0 1 .067 1.133 3.418 3.418 0 0 1-.377 1.156A4.194 4.194 0 0 1 21 34.14a2.649 2.649 0 0 1-.9.6 2.334 2.334 0 0 1-1.049.144 3.14 3.14 0 0 1-1.179-.368l.814-1.533a1.471 1.471 0 0 0 1.071.207 1.514 1.514 0 0 0 .9-1.24 1.235 1.235 0 0 0-.078-.515 1.41 1.41 0 0 0-.29-.458 1.8 1.8 0 0 0-.475-.359z" class="cls-2" data-name="Path 496"/>
            <path id="Path_497" d="M27.3 20.561a5.287 5.287 0 0 1 .9 1.331 3.658 3.658 0 0 1 .35 1.369 3 3 0 0 1-.231 1.309 3.218 3.218 0 0 1-.838 1.152 3.1 3.1 0 0 1-1.219.707 2.855 2.855 0 0 1-1.3.075 3.706 3.706 0 0 1-1.3-.506 5.508 5.508 0 0 1-1.225-1.032L21.552 24a5.6 5.6 0 0 1-.906-1.322 3.771 3.771 0 0 1-.375-1.352 2.9 2.9 0 0 1 .2-1.287 3.07 3.07 0 0 1 .822-1.144 3.221 3.221 0 0 1 1.236-.72 3.023 3.023 0 0 1 1.33-.095 3.687 3.687 0 0 1 1.328.487 5.3 5.3 0 0 1 1.235 1.025zm-2.187.2a5.407 5.407 0 0 0-.743-.689 2.563 2.563 0 0 0-.74-.4 1.462 1.462 0 0 0-.711-.059 1.345 1.345 0 0 0-.664.347 1.239 1.239 0 0 0-.394.61 1.349 1.349 0 0 0 .011.69 2.645 2.645 0 0 0 .35.755 6.435 6.435 0 0 0 .623.8l.884.978a6.377 6.377 0 0 0 .728.7 2.746 2.746 0 0 0 .721.428 1.373 1.373 0 0 0 .691.087 1.235 1.235 0 0 0 .653-.333 1.3 1.3 0 0 0 .4-.623 1.434 1.434 0 0 0 .008-.717 2.73 2.73 0 0 0-.327-.778 5.045 5.045 0 0 0-.603-.82z" class="cls-2" data-name="Path 497"/>
            <path id="Path_498" d="M29.57 13.267l4.792-1.979.533 1.293-1.615.666 2.355 5.708 1.616-.668.53 1.286-4.791 1.979-.531-1.286 1.576-.651-2.355-5.707-1.576.65z" class="cls-2" data-name="Path 498"/>
            <path id="Path_499" d="M47.491 18.4l-1.721.077-2.75-5.664.259 5.775-1.741.078-.4-8.955 1.741-.078 2.729 5.641-.25-5.75 1.733-.079z" class="cls-2" data-name="Path 499"/>
            <path id="Path_500" d="M70.067 18.66L66.5 23.407a4.01 4.01 0 0 1-.97.941 2.664 2.664 0 0 1-1.071.43 2.547 2.547 0 0 1-1.131-.086 3.656 3.656 0 0 1-1.151-.605 3.375 3.375 0 0 1-.849-.9 2.54 2.54 0 0 1-.378-1.049 2.729 2.729 0 0 1 .116-1.15 3.875 3.875 0 0 1 .637-1.2l3.581-4.738 1.382 1.041-3.572 4.747a2.3 2.3 0 0 0-.536 1.237 1.037 1.037 0 0 0 .456.9 1.142 1.142 0 0 0 1.043.23 2.189 2.189 0 0 0 1.063-.842l3.58-4.737z" class="cls-2" data-name="Path 500"/>
            <path id="Path_501" d="M71.573 31a1.2 1.2 0 0 0 .33-.315 1.058 1.058 0 0 0 .171-.451 2.08 2.08 0 0 0-.009-.62 4.893 4.893 0 0 0-.206-.825 7.626 7.626 0 0 1-.278-1.154 4.123 4.123 0 0 1-.031-1.1 2.709 2.709 0 0 1 .3-.977 2.152 2.152 0 0 1 .732-.77 2.2 2.2 0 0 1 .991-.363 2.346 2.346 0 0 1 1.024.124 3.135 3.135 0 0 1 .97.564 4.271 4.271 0 0 1 .835.954 3.836 3.836 0 0 1 .534 1.186 3.021 3.021 0 0 1 .072 1.148 2.575 2.575 0 0 1-1.169 1.826l-.926-1.41a1.793 1.793 0 0 0 .405-.395 1.177 1.177 0 0 0 .207-.475 1.3 1.3 0 0 0-.02-.547 1.922 1.922 0 0 0-.274-.6 2.1 2.1 0 0 0-.405-.466 1.307 1.307 0 0 0-.444-.25.991.991 0 0 0-.451-.039 1.058 1.058 0 0 0-.426.165.847.847 0 0 0-.313.355 1.266 1.266 0 0 0-.105.507 3.129 3.129 0 0 0 .069.65 7.423 7.423 0 0 0 .212.784 6.608 6.608 0 0 1 .256 1.187 3.67 3.67 0 0 1-.023 1.08 2.613 2.613 0 0 1-.357.926 2.409 2.409 0 0 1-.729.725 2.194 2.194 0 0 1-2.017.255 2.981 2.981 0 0 1-.948-.57 4.892 4.892 0 0 1-1.229-1.716 3.95 3.95 0 0 1-.244-.8 3.623 3.623 0 0 1-.059-.819 2.784 2.784 0 0 1 .152-.789 2.577 2.577 0 0 1 .4-.717 2.829 2.829 0 0 1 .676-.609l.934 1.421a1.808 1.808 0 0 0-.5.5 1.245 1.245 0 0 0-.2.562 1.489 1.489 0 0 0 .077.612 2.8 2.8 0 0 0 .316.641 2.123 2.123 0 0 0 .4.469 1.363 1.363 0 0 0 .434.257.951.951 0 0 0 .441.05.969.969 0 0 0 .425-.171z" class="cls-2" data-name="Path 501"/>
            <path id="Path_502" d="M77.291 64.019l-.811 1.527-5.49-2.907a2.881 2.881 0 0 1-.916-.762 2.783 2.783 0 0 1-.5-1 2.925 2.925 0 0 1-.068-1.133 3.44 3.44 0 0 1 .377-1.156 4.171 4.171 0 0 1 .73-1.006 2.64 2.64 0 0 1 .9-.6 2.328 2.328 0 0 1 1.049-.144 3.142 3.142 0 0 1 1.178.368l-.814 1.533a1.473 1.473 0 0 0-1.072-.207 1.306 1.306 0 0 0-.741.707 1.275 1.275 0 0 0-.153.533 1.252 1.252 0 0 0 .078.515 1.41 1.41 0 0 0 .29.458 1.8 1.8 0 0 0 .475.359z" class="cls-2" data-name="Path 502"/>
            <path id="Path_503" d="M64.315 71.16a5.266 5.266 0 0 1-.9-1.331 3.658 3.658 0 0 1-.35-1.369 3.018 3.018 0 0 1 .23-1.309A3.233 3.233 0 0 1 64.139 66a3.109 3.109 0 0 1 1.218-.707 2.86 2.86 0 0 1 1.3-.075 3.711 3.711 0 0 1 1.3.506 5.477 5.477 0 0 1 1.223 1.032l.876.967a5.569 5.569 0 0 1 .905 1.322 3.713 3.713 0 0 1 .375 1.352 2.9 2.9 0 0 1-.2 1.287 3.114 3.114 0 0 1-.822 1.144 3.224 3.224 0 0 1-1.237.72 3.02 3.02 0 0 1-1.329.095 3.69 3.69 0 0 1-1.33-.487 5.314 5.314 0 0 1-1.234-1.025zm2.186-.2a5.4 5.4 0 0 0 .742.689 2.559 2.559 0 0 0 .742.4 1.46 1.46 0 0 0 .711.059 1.336 1.336 0 0 0 .662-.347 1.241 1.241 0 0 0 .395-.61 1.349 1.349 0 0 0-.011-.69 2.623 2.623 0 0 0-.351-.755 6.241 6.241 0 0 0-.622-.8l-.884-.978a6.225 6.225 0 0 0-.729-.7 2.722 2.722 0 0 0-.719-.428 1.379 1.379 0 0 0-.693-.087 1.239 1.239 0 0 0-.652.333 1.305 1.305 0 0 0-.4.623 1.456 1.456 0 0 0-.008.717 2.68 2.68 0 0 0 .328.778 5.085 5.085 0 0 0 .607.812z" class="cls-2" data-name="Path 503"/>
            <path id="Path_504" d="M62.044 78.454l-4.793 1.979-.531-1.293 1.615-.666-2.356-5.708-1.616.668-.531-1.286 4.792-1.979.531 1.286-1.577.651 2.355 5.707 1.578-.65z" class="cls-2" data-name="Path 504"/>
            <path id="Path_505" d="M44.122 73.32l1.723-.077 2.748 5.664-.258-5.775 1.74-.078.4 8.955-1.74.078-2.729-5.641.251 5.75-1.734.079z" class="cls-2" data-name="Path 505"/>
            <path id="Path_506" d="M21.547 73.061l3.573-4.747a3.972 3.972 0 0 1 .969-.941 2.658 2.658 0 0 1 1.071-.43 2.548 2.548 0 0 1 1.131.086 3.667 3.667 0 0 1 1.151.605 3.411 3.411 0 0 1 .85.9 2.566 2.566 0 0 1 .377 1.049 2.728 2.728 0 0 1-.115 1.15 3.917 3.917 0 0 1-.637 1.2l-3.582 4.738-1.383-1.041 3.574-4.747a2.3 2.3 0 0 0 .535-1.237 1.036 1.036 0 0 0-.457-.9 1.139 1.139 0 0 0-1.041-.23 2.176 2.176 0 0 0-1.063.842l-3.583 4.738z" class="cls-2" data-name="Path 506"/>
            <path id="Path_507" d="M20.042 60.719a1.185 1.185 0 0 0-.33.315 1.046 1.046 0 0 0-.172.451 2.048 2.048 0 0 0 .009.62 4.891 4.891 0 0 0 .206.825 7.508 7.508 0 0 1 .277 1.154 4.084 4.084 0 0 1 .032 1.1 2.691 2.691 0 0 1-.3.977 2.143 2.143 0 0 1-.732.77 2.186 2.186 0 0 1-.99.363 2.34 2.34 0 0 1-1.023-.124 3.118 3.118 0 0 1-.971-.564 4.243 4.243 0 0 1-.834-.954 3.839 3.839 0 0 1-.535-1.186 3 3 0 0 1-.072-1.148 2.573 2.573 0 0 1 1.17-1.826L16.7 62.9a1.793 1.793 0 0 0-.405.395 1.177 1.177 0 0 0-.207.475 1.3 1.3 0 0 0 .02.547 1.9 1.9 0 0 0 .274.6 2.077 2.077 0 0 0 .405.466 1.316 1.316 0 0 0 .444.25.994.994 0 0 0 .452.039 1.055 1.055 0 0 0 .424-.165.834.834 0 0 0 .313-.355 1.2 1.2 0 0 0 .105-.507 3 3 0 0 0-.068-.65 7.441 7.441 0 0 0-.213-.784 6.781 6.781 0 0 1-.256-1.187 3.635 3.635 0 0 1 .025-1.08 2.557 2.557 0 0 1 .356-.926 2.4 2.4 0 0 1 .731-.718 2.191 2.191 0 0 1 2.016-.255 2.956 2.956 0 0 1 .947.57 4.587 4.587 0 0 1 .83.967 4.822 4.822 0 0 1 .4.749 3.834 3.834 0 0 1 .245.8 3.623 3.623 0 0 1 .059.819 2.719 2.719 0 0 1-.153.789 2.552 2.552 0 0 1-.4.717 2.774 2.774 0 0 1-.676.609l-.932-1.421a1.816 1.816 0 0 0 .5-.5 1.245 1.245 0 0 0 .2-.562 1.489 1.489 0 0 0-.077-.612 2.768 2.768 0 0 0-.317-.641 2.12 2.12 0 0 0-.4-.469 1.349 1.349 0 0 0-.433-.257.955.955 0 0 0-.863.109z" class="cls-2" data-name="Path 507"/>
        </g>
    </g>
</svg>
