<svg xmlns="http://www.w3.org/2000/svg" width="412.041" height="434.812" viewBox="0 0 412.041 434.812">
    <defs>
        <style>
            .cls-1{fill:#02f6b6}
        </style>
    </defs>
    <g id="Grainer_Logo_Illustration" data-name="Grainer Logo Illustration" transform="translate(-.003 .012)">
        <path id="Path_495" d="M159.28 429.1l-2.55-.73c-45.28-13-77.68-41.37-78-41.66l-.08-.07c-1.15-1.15-3-2.82-5.43-4.93-11.72-10.35-36.13-31.9-53.49-62.18l-1-1.81 44.69-23 1 1.61A170.592 170.592 0 0 0 86 324.83l1.19 1.22c7.39 7.85 14.24 13.89 18.77 17.89 2 1.73 3.5 3.1 4.51 4.09A179.362 179.362 0 0 0 158 376.17l1.27.5zm-77.86-45.35c1.25 1.1 31.51 27.21 73.86 40v-44.37A179 179 0 0 1 107.73 351l-.08-.07c-.93-.92-2.46-2.27-4.39-4-4.27-3.77-10.58-9.34-17.5-16.53l-1.53-1.62A178.5 178.5 0 0 1 61.86 300l-37.62 19.35c17 28.76 40.29 49.36 51.62 59.37 2.41 2.12 4.32 3.81 5.56 5.03z" class="cls-1" data-name="Path 495"/>
        <path id="Path_496" d="M118.73 309.05l-1.55-1.53c-.82-.82-1.66-1.66-2.51-2.55-.56-.57-1.11-1.15-1.67-1.74-1.16-1.22-2.3-2.48-3.41-3.73-.87-1-1.73-2-2.6-3-2.77-3.29-5.37-6.65-7.71-10l-.83-1.19c-12.1-17.65-18.21-36-18.16-54.42.07-30.14 16.52-60.53 48.89-90.32 1.51-1.38 3-2.71 4.45-4l1.36-1.19.25-.23c.95-.83 1.9-1.66 2.85-2.47l.36-.3 1.5-1.29c1.29-1.08 2.56-2.15 3.84-3.2a286.25 286.25 0 0 1 64.06-40.1 243.348 243.348 0 0 1 40.61-14.1l.9-.22.75.54c11.09 8 20.12 16.56 26.84 25.6l2.22 3-3.71.22a165.09 165.09 0 0 0-39 7.14c-23.31 7.19-45.82 19.47-66.9 36.52-1 .78-1.94 1.58-2.92 2.39s-2.15 1.81-3.24 2.75l-1.19 1-.39.34c-1.44 1.27-2.89 2.55-4.34 3.88q-1.8 1.66-3.49 3.3l-.62.62-.64.63c-.68.68-1.37 1.35-2 2-.27.27-.52.54-.78.81l-.83.88c-.5.52-1 1-1.47 1.55-.27.3-.54.59-.8.89l-.79.88c-.43.48-.87 1-1.28 1.43l-.8.94-.67.79c-.41.48-.82 1-1.21 1.45l-.77 1-.63.8c-.37.46-.74.92-1.08 1.38s-.51.67-.76 1l-.44.59c-.37.5-.75 1-1.1 1.5s-.5.71-.75 1.07l-.39.57-1 1.43c-.24.36-.47.73-.7 1.09l-.26.41c-.33.51-.67 1-1 1.54l-.65 1.09-.17.29c-.33.54-.65 1.08-.95 1.62s-.44.8-.66 1.2l-.09.17c-.29.53-.58 1.07-.85 1.6s-.42.84-.63 1.26c-.31.61-.56 1.14-.81 1.67s-.4.88-.6 1.32-.46 1.05-.68 1.57-.36.87-.53 1.3-.41 1-.6 1.55l-.47 1.29-.52 1.53-.39 1.26c-.16.51-.3 1-.44 1.51s-.23.84-.34 1.25-.25 1-.37 1.49-.19.82-.27 1.22-.21 1-.3 1.49-.15.79-.22 1.19-.16 1-.23 1.47-.11.78-.16 1.17-.11 1-.16 1.46-.08.78-.11 1.14-.07 1-.1 1.45v6.11c0 .48.06 1 .09 1.44v.17l.06.84a13.115 13.115 0 0 0 .15 1.39v.36a1.968 1.968 0 0 0 .07.64c.06.5.14 1 .21 1.46v.31l.09.59c.08.47.17.93.26 1.39l.07.41a2.5 2.5 0 0 0 .11.53c.1.51.22 1 .34 1.52l.18.77c.13.52.27 1 .41 1.56l.19.68c.16.56.33 1.12.51 1.67l.16.54c.21.63.43 1.26.65 1.89l.09.25c.77 2.1 1.65 4.22 2.64 6.31.33.7.64 1.32 1 1.93l.18.35c.27.54.56 1.07.85 1.6l.25.46c.27.48.54 1 .82 1.44l.32.54c.26.44.52.88.79 1.31l.36.58.78 1.23.45.68.72 1.08.42.6.78 1.11.43.59c.26.37.52.72.79 1.07l.42.56a11.641 11.641 0 0 0 .8 1l.47.59.78 1 .46.57.78.94.48.55c.25.31.51.61.77.9l.48.56.76.85.48.54.76.82 2.06 2.2zm129.8-231.24a239.262 239.262 0 0 0-39 13.64 281.729 281.729 0 0 0-63.2 39.55c-1.26 1-2.53 2.08-3.79 3.15l-1.49 1.27-.36.31c-.93.8-1.87 1.61-2.81 2.44l-.26.22-1.33 1.18q-2.17 1.94-4.37 3.94c-31.55 29-47.57 58.43-47.63 87.41 0 17.64 5.83 35.18 17.46 52.14l.81 1.16c2.27 3.25 4.79 6.51 7.49 9.71.84 1 1.69 2 2.53 2.92 1.08 1.22 2.2 2.44 3.33 3.63.54.58 1.09 1.15 1.63 1.71l.92.94 22.89-27.45-.45-.49-.5-.55-.78-.88-.5-.57-.8-.93-.49-.58-.81-1-.48-.6-.81-1-.48-.61-.81-1.06-.47-.61-.81-1.11-.45-.62c-.28-.38-.55-.77-.82-1.16l-.43-.63-.76-1.12-.46-.71c-.28-.43-.55-.86-.82-1.29l-.38-.6c-.28-.45-.55-.91-.82-1.37l-.34-.57-.86-1.51-.26-.48c-.31-.56-.61-1.12-.9-1.69l-.19-.36c-.34-.67-.68-1.35-1-2v-.05c-1-2.19-2-4.43-2.78-6.65l-.07-.19c-.27-.74-.5-1.41-.72-2.09l-.18-.56c-.18-.59-.37-1.18-.54-1.78l-.12-.44-.07-.27c-.15-.56-.31-1.11-.44-1.67l-.19-.82c-.13-.53-.25-1.07-.37-1.61l-.12-.62-.05-.29c-.12-.58-.21-1.07-.29-1.57a4.18 4.18 0 0 0-.11-.68v-.28c-.08-.52-.16-1-.23-1.56a2.245 2.245 0 0 0-.08-.72v-.3c-.06-.54-.12-1-.16-1.54a3.991 3.991 0 0 0-.07-.91v-.17q-.06-.75-.09-1.53v-6.52c0-.51.06-1 .1-1.55s.07-.76.11-1.14c.06-.59.12-1.11.18-1.63s.11-.83.17-1.24.16-1 .25-1.57.15-.84.23-1.27.2-1 .31-1.57.19-.87.29-1.3.26-1.06.4-1.59.23-.88.35-1.32.31-1.06.47-1.59l.42-1.35c.18-.53.36-1.07.55-1.61s.32-.9.49-1.36.41-1.08.63-1.63l.56-1.37q.34-.83.72-1.65c.2-.46.41-.92.63-1.39s.53-1.1.8-1.65l.7-1.42c.29-.55.59-1.11.9-1.67l.08-.16.7-1.27 1-1.69.17-.28c.23-.39.45-.77.69-1.15.33-.54.67-1.08 1-1.61l.26-.41c.24-.38.48-.76.74-1.14s.67-1 1-1.5l.39-.56c.26-.38.51-.75.78-1.12s.76-1 1.15-1.57l.43-.57c.26-.36.52-.72.8-1.07s.75-1 1.13-1.44l.62-.78.81-1c.41-.5.84-1 1.27-1.5l.65-.77c.28-.33.55-.66.84-1 .43-.5.88-1 1.33-1.49l.77-.87.85-.93c.49-.54 1-1.07 1.52-1.61l.81-.85c.27-.29.54-.58.83-.86.67-.69 1.37-1.39 2.08-2.08l.6-.6.67-.67q1.74-1.68 3.57-3.37c1.48-1.35 2.94-2.66 4.41-4l.39-.33 1.22-1.07c1.1-1 2.19-1.87 3.29-2.79s2-1.63 3-2.43c21.48-17.37 44.43-29.89 68.23-37.23a171 171 0 0 1 36.22-7.06 120.851 120.851 0 0 0-23.02-21.25z" class="cls-1" data-name="Path 496"/>
        <path id="Path_497" d="M200.8 434.8c-2.34 0-4.66-.05-7-.17l-1.9-.09v-83.9a130.66 130.66 0 0 1-35.52-13.12h-.1l-2.67-1.52q-2.595-1.5-5.09-3l-.1-.06q-4-2.49-7.86-5.17l-1.77-1.25 28-33.52 1.49 1A106.489 106.489 0 0 0 195 306.8l1.51.46.55.15 1.5.41.59.15 1.5.37.61.14c.5.11 1 .23 1.51.33l.6.12c.52.1 1 .21 1.57.3l.54.09 1.65.27.49.07 1.73.23h.41c.61.07 1.22.14 1.84.19h.26c.67.06 1.35.11 2 .14h.11a66.338 66.338 0 0 0 16.29-1.11l2.38-.47v74.44l.81-.2c.71-.17 1.43-.36 2.14-.55l1.17-.33 1.68-.49c.33-.09.65-.2 1-.3h.14l1.54-.5.18-.05.92-.31 1.86-.65.83-.3 2.42-.93 1-.41 1.65-.69 1.07-.46 1.75-.8.9-.41c.84-.39 1.68-.8 2.53-1.22l.89-.46 1.76-.92 1.06-.58c.56-.3 1.12-.61 1.67-.93l.3-.16.71-.41 2.46-1.47.74-.46 2-1.25 1.06-.7 1.62-1.1 1.08-.74c.62-.43 1.23-.87 1.85-1.32l.8-.58c.84-.61 1.67-1.25 2.51-1.89l.73-.58.29-.22 1.64-1.31 1.1-.9 1.68-1.41.33-.29.64-.54c.83-.73 1.67-1.47 2.5-2.22l.9-.83c.58-.53 1.15-1.07 1.73-1.62l1.08-1 1.62-1.58 1-1c.74-.75 1.47-1.51 2.21-2.28l.86-.91c.68-.72 1.35-1.45 2-2.2l.9-1 .11-.12c.55-.61 1.1-1.23 1.65-1.87l.14-.16.87-1c.63-.73 1.25-1.47 1.87-2.22l.73-.86c.83-1 1.66-2.05 2.49-3.1l.86-1.11c.59-.75 1.17-1.5 1.76-2.27l.94-1.26c.6-.81 1.21-1.62 1.8-2.45l.78-1.07q1.28-1.76 2.52-3.58l.53-.77c.68-1 1.36-2 2-3l.81-1.24c.62-.94 1.23-1.89 1.85-2.85l.73-1.16c.85-1.34 1.69-2.69 2.53-4.08 21.4-35.28 36.38-71.51 44.53-107.69a301.473 301.473 0 0 0 5.95-36.85l.32-3.24 2.74 1.75a152 152 0 0 1 21.89 16.71c2.57 2.39 4.95 4.79 7.06 7.13l.66.73-.18 1a395.923 395.923 0 0 1-10.25 42.2c-10.79 35.78-27 71.61-48.16 106.52l-.54.87-.39.64c-.68 1.09-1.35 2.19-2 3.26l-1.4 2.2-.08.11c-.54.85-1.08 1.69-1.63 2.53l-1.53 2.33-1.63 2.35-.34.5c-.38.57-.76 1.13-1.15 1.69q-1.4 2-2.81 4l-1.28 1.76-.42.56c-.48.66-1 1.32-1.44 2s-1.13 1.51-1.69 2.26l-1.47 1.9c-.59.77-1.15 1.49-1.71 2.2-.36.46-.73.91-1.09 1.35l-.39.49q-1.56 1.94-3.13 3.8l-.31.38-1.05 1.18c-.61.72-1.22 1.42-1.84 2.13-.44.51-.89 1-1.33 1.51L315 379.8c-.36.39-.72.77-1.07 1.16l-.2.21c-1.42 1.53-2.81 3-4.15 4.37l-.54.56c-.62.63-1.24 1.24-1.87 1.86l-.35.35-1 1c-.66.64-1.33 1.28-2 1.9l-1.1 1-.08.07c-.71.66-1.38 1.29-2.05 1.89l-.6.54c-1.43 1.28-2.91 2.57-4.39 3.83l-1 .8c-.7.59-1.4 1.16-2.11 1.73l-1.09.88-2.13 1.67-.87.66c-2.43 1.85-4.9 3.63-7.34 5.29l-.93.63c-.74.5-1.49 1-2.23 1.47l-.88.56c-2.5 1.59-5.06 3.13-7.61 4.55l-.58.33c-.79.44-1.58.86-2.37 1.28l-.78.41c-.8.42-1.61.84-2.41 1.24l-.29.15c-2.65 1.31-5.36 2.56-8.06 3.7l-.53.22c-.85.36-1.7.71-2.54 1l-.36.14c-3.67 1.44-7.4 2.72-11.11 3.82l-.18.06c-1.61.47-3.35.95-5.31 1.45h-.13c-1.23.31-2.48.62-3.73.9l-.9.18-.6.12-1.45.29c-1.28.26-2.55.49-3.83.71h-.15l-1.13.19c-2.57.41-5.16.74-7.72 1l-.71.07c-1.6.15-3.19.28-4.73.37h-.47a78.726 78.726 0 0 1-8.54.39zm-4.8-4.08c4.33.15 8.76.1 13.18-.16h.45c1.5-.09 3-.21 4.59-.36l.7-.07c2.48-.25 5-.58 7.5-1l1.08-.18h.16c1.24-.21 2.47-.43 3.71-.68l1.41-.28.65-.14.8-.16c1.21-.27 2.43-.57 3.64-.88l.6 1.92-.5-1.94c1.91-.49 3.6-.95 5.18-1.42h.11c3.65-1.08 7.28-2.33 10.83-3.72l.36-.14c.82-.33 1.64-.66 2.46-1l.53-.22c2.62-1.11 5.25-2.32 7.83-3.6l.29-.14 2.34-1.2.76-.4c.77-.41 1.54-.82 2.3-1.25l.57-.32c2.48-1.39 5-2.88 7.41-4.44l.86-.54 2.18-1.43.87-.6c2.42-1.64 4.83-3.38 7.19-5.18l.85-.65c.7-.53 1.4-1.08 2.09-1.64l1.02-.9 2.06-1.69.94-.79c1.45-1.23 2.9-2.49 4.29-3.75l.6-.52 2-1.81.12-.12 1.08-1 1.95-1.87 1-.95.36-.36c.61-.6 1.22-1.2 1.83-1.82l.53-.55c1.31-1.34 2.68-2.78 4.07-4.28l.2-.22.97-1.17 1.84-2c.43-.5.87-1 1.31-1.49.6-.69 1.21-1.39 1.81-2.1l1-1.2.32-.39c1-1.22 2.05-2.47 3.08-3.74l.39-.49c.35-.44.71-.87 1.06-1.32l1.66-2.13 1.47-1.92c.56-.73 1.12-1.47 1.67-2.21s.95-1.29 1.43-1.94l.41-.57c.42-.57.84-1.14 1.25-1.72.93-1.3 1.86-2.61 2.78-3.95.38-.54.75-1.09 1.13-1.65l.34-.51c.55-.8 1.09-1.6 1.63-2.41s1-1.53 1.51-2.3 1.08-1.66 1.61-2.49l.08-.12 1.38-2.17c.67-1.06 1.33-2.14 2-3.23l.41-.66.51-.82c21-34.62 37.06-70.15 47.75-105.61a393.746 393.746 0 0 0 10-40.79c-1.87-2-3.93-4.09-6.15-6.15a145.746 145.746 0 0 0-18.59-14.5 306.272 306.272 0 0 1-5.69 34.08c-8.24 36.6-23.39 73.23-45 108.89-.85 1.4-1.71 2.78-2.56 4.13l-.75 1.18c-.62 1-1.25 1.94-1.87 2.89l-.83 1.26c-.69 1-1.38 2.06-2.07 3.07l-.54.79q-1.27 1.85-2.56 3.63l-.79 1.09-1.85 2.47-1 1.28c-.59.79-1.19 1.56-1.78 2.32l-.88 1.13c-.85 1.07-1.69 2.12-2.54 3.16l-.74.88c-.64.76-1.27 1.52-1.91 2.27l-.9 1-.14.16c-.56.65-1.12 1.28-1.68 1.91l-.11.12-.92 1c-.69.76-1.38 1.5-2.08 2.24l-.87.93c-.76.79-1.51 1.57-2.27 2.33l-1.06 1.06-1.65 1.63-1.05 1.1-1.78 1.66-.35.32c-.19.18-.38.36-.58.53-.85.78-1.7 1.53-2.56 2.28l-.67.57-.33.28-1.73 1.45-1.13.92c-.56.46-1.13.91-1.69 1.35l-.28.22c-.25.2-.51.41-.77.6q-1.28 1-2.58 1.95l-.82.6c-.64.46-1.27.92-1.91 1.36l-1.11.76-1.71 1.14-1.09.71-2 1.29-.77.48c-.85.52-1.69 1-2.54 1.52l-.76.43-.28.16c-.57.33-1.15.65-1.73 1l-1.1.6-1.82.95-.92.47c-.87.44-1.75.86-2.62 1.27l-.92.43-1.82.82-1.1.48-1.72.71-1 .42c-.83.34-1.67.66-2.5 1l-.86.31-1.93.68-1 .32-.18.05-1.6.52h-.14l-1 .32-1.74.5-1.21.34-2.23.58-1 .24-.24.06-1.39.32-3.12.67v-74.6a70.939 70.939 0 0 1-14.9.75c-.81 0-1.52-.1-2.23-.15h-.27c-.66-.05-1.31-.12-2-.2h-.42c-.61-.07-1.22-.16-1.82-.24l-.52-.07-1.73-.28-.58-.1-1.64-.32-.63-.12-1.59-.35-.64-.14-1.57-.39-.62-.16-1.56-.43-.58-.16-1.58-.47a109.879 109.879 0 0 1-26.24-12.35l-22.88 27.44c2 1.33 3.95 2.62 5.95 3.85 1.62 1 3.28 2 4.92 2.89.85.48 1.69.94 2.54 1.4l.16.08A126 126 0 0 0 194.32 347l1.63.31z" class="cls-1" data-name="Path 497"/>
        <path id="Path_498" d="M265.28 336.08v-45.51l.63-.59a128 128 0 0 0 21.21-26.93c.7-1.15 1.38-2.3 2.05-3.44l.6-1 1.37-2.39.64-1.16c.43-.76.85-1.53 1.27-2.29l.59-1.1 1.25-2.34.51-1q.64-1.23 1.26-2.46l.42-.84c.44-.89.88-1.77 1.3-2.65l.31-.65c.46-1 .92-1.93 1.36-2.9l.14-.31c.54-1.17 1-2.26 1.51-3.34a193.2 193.2 0 0 0 16.19-62.76c-7.17-3-14.7-5.9-22.4-8.5l-3.42-1.13-.95-.31-2.45-.78-1.41-.44-.89-.27-1.45-.45h-.15l-1.85-.55-82.55 99-1.4-.67a56.4 56.4 0 0 1-12.11-7.73l-.08-.08c-.29-.28-.74-.67-1.31-1.18A73.42 73.42 0 0 1 174.79 238l-.93-1.27 94.05-112.83h.94a99.061 99.061 0 0 1 14.47 1 34.161 34.161 0 0 1 5.45 1h.11c2.2.53 8.11 2 15.27 4.05 5.13 1.48 10.3 3.1 15.36 4.82l1.55.54a308.636 308.636 0 0 1 28.73 11.5l1.17.54v1.29a234.346 234.346 0 0 1-2.56 32.69l-.12.83c-.1.69-.2 1.39-.32 2.09a269.79 269.79 0 0 1-20.36 67.35l-.07.17c-.49 1.1-1 2.21-1.51 3.32-.36.78-.73 1.57-1.1 2.35-.62 1.31-1.25 2.62-1.89 3.94s-1.34 2.73-2 4.1c-.43.84-.86 1.69-1.3 2.53-.74 1.42-1.49 2.85-2.26 4.27l-.35.67-.48.9c-1 1.74-2 3.66-3.28 5.87l-.95 1.64c-1.36 2.36-2.52 4.33-3.67 6.22q-1.08 1.77-2.16 3.48l-.62 1c-.56.88-1.12 1.74-1.68 2.6l-.55.83c-.72 1.09-1.45 2.16-2.18 3.21l-.39.56c-.61.87-1.23 1.74-1.84 2.59l-.64.87c-.62.85-1.24 1.68-1.86 2.5l-.38.51c-.74 1-1.49 1.92-2.24 2.86l-.54.67-1.77 2.16-.62.74c-1.48 1.76-3 3.5-4.54 5.15l-.62.67-1.79 1.89-.56.58c-.76.77-1.52 1.54-2.29 2.28l-.37.36c-.65.63-1.3 1.25-1.95 1.85l-.65.6c-.65.6-1.29 1.18-1.94 1.75l-.39.34c-.78.68-1.55 1.33-2.32 2l-.55.46-1.83 1.47-.64.5c-.56.44-1.12.85-1.68 1.26zm4-43.79v35.81l1.44-1.16.54-.44c.74-.62 1.49-1.26 2.23-1.91l.39-.34c.62-.55 1.25-1.11 1.87-1.68l.63-.59c.64-.58 1.27-1.18 1.9-1.79l.36-.35q1.11-1.08 2.22-2.22l.54-.56c.58-.6 1.17-1.22 1.75-1.84l.6-.65c1.49-1.61 3-3.3 4.43-5l.54-.65c.64-.76 1.21-1.47 1.79-2.18l.53-.66c.73-.91 1.45-1.84 2.18-2.79l.37-.49c.61-.81 1.22-1.62 1.82-2.45l.63-.86c.6-.83 1.2-1.68 1.8-2.53l.39-.55c.71-1 1.42-2.08 2.13-3.14l.54-.82 1.65-2.55.61-1c.71-1.12 1.42-2.25 2.12-3.41 1.13-1.87 2.28-3.82 3.63-6.15l.93-1.62c1.25-2.18 2.31-4.08 3.24-5.8l.47-.87.36-.68c.76-1.41 1.5-2.81 2.22-4.22.44-.83.87-1.67 1.29-2.5.69-1.36 1.36-2.7 2-4.05s1.26-2.59 1.87-3.88c.36-.78.73-1.56 1.09-2.33l1.52-3.33v-.09a265.688 265.688 0 0 0 20.1-66.26c.11-.68.21-1.36.31-2l.13-.84A232.556 232.556 0 0 0 347 150c-8.5-3.88-17.64-7.52-27.18-10.81l-1.54-.53c-5-1.7-10.11-3.3-15.18-4.77-7.38-2.12-13.45-3.61-15.13-4h-.17a82.329 82.329 0 0 0-18-1.93L179 236.82a71.087 71.087 0 0 0 9.16 9.41c.61.55 1.1 1 1.42 1.3a53.281 53.281 0 0 0 9.77 6.39l81.54-97.79 1.42 1.18.34-1.66.24.06 3.09.92h.12l2.18.66 1.62.51 2.48.79 1 .31c1.12.36 2.25.73 3.41 1.13 8.31 2.8 16.38 5.89 24 9.17l1.3.56-.06 1.43a197 197 0 0 1-16.63 65.51c-.49 1.1-1 2.21-1.49 3.32l-.19.41c-.45 1-.91 1.95-1.38 2.93l-.32.66q-.64 1.35-1.32 2.7l-.42.85c-.42.84-.85 1.67-1.28 2.51l-.53 1c-.41.79-.84 1.59-1.26 2.38l-.61 1.12c-.42.78-.85 1.55-1.28 2.33l-.66 1.17c-.45.81-.92 1.62-1.39 2.43l-.61 1.06c-.68 1.16-1.37 2.32-2.08 3.49a133 133 0 0 1-21.3 27.23z" class="cls-1" data-name="Path 498"/>
        <path id="Path_499" d="M5.74 287.64l-.67-2.35c-16.38-57.48 7-115.76 69.42-173.21a484.518 484.518 0 0 1 65.35-50.81A423 423 0 0 1 176.75 40a391.109 391.109 0 0 1 41-18A359 359 0 0 1 275 5.92 326.221 326.221 0 0 1 333.57 0h.12a271.193 271.193 0 0 1 40.12 2.6c4.94.71 8.73 1.43 11 1.91s3.34.7 4 .91l.86.22.44.84c.38.77 9.28 19.29 15.52 50l-1.93.52 2-.38a320.232 320.232 0 0 1 5.7 43.55v.17a347.59 347.59 0 0 1-.3 46.74l-.28 3.71-2.94-2.28a193.389 193.389 0 0 0-32.1-19.67 292.469 292.469 0 0 0-30-12.7 308.687 308.687 0 0 0-36.45-10.83l-.94-.21-.05-.09h-.29l-.25-1-.34-.71.12-.23c-2.78-11.3-8.77-22.14-17.81-32.23L287 67.56l4.2-.2a186.18 186.18 0 0 1 32 1.19c4 .51 7 1.07 8.9 1.44s2.68.55 3.23.72a348.182 348.182 0 0 1 33.8 10c-4.37-20.22-9.92-33-11.36-36.06-3.46-.83-18.71-4.08-41.61-4a261.711 261.711 0 0 0-54.69 6.06 290.817 290.817 0 0 0-42.74 12.82 317.938 317.938 0 0 0-38.58 18A376 376 0 0 0 107 130.55c-47.89 44.06-66.89 88.59-56.49 132.34l.37 1.53zM336 4h-2.28a322.123 322.123 0 0 0-57.93 5.84 355.493 355.493 0 0 0-56.61 15.88 383.929 383.929 0 0 0-40.58 17.84A417.457 417.457 0 0 0 142 64.63 481 481 0 0 0 77.2 115C16.82 170.58-6.37 226.69 8.27 281.84l38-19.55c-10-44.77 9.54-90.08 58-134.69a379.89 379.89 0 0 1 73.92-53.69 321.4 321.4 0 0 1 39.07-18.2 295.573 295.573 0 0 1 43.33-13 265.708 265.708 0 0 1 55.53-6.15h.64c25.41 0 41.06 3.92 42.77 4.37a2.62 2.62 0 0 1 1.47 1.33c.78 1.61 7.73 16.42 12.67 40.94l.7 3.49-3.31-1.06a341 341 0 0 0-36.76-11l-.27-.07c-1.64-.41-16.31-3.89-38.57-3.32 7.88 9.57 13.21 19.77 15.89 30.39l.37.11a324.806 324.806 0 0 1 35.4 10.63 296.223 296.223 0 0 1 30.39 12.88 201.9 201.9 0 0 1 29.8 17.86 343 343 0 0 0 0-42.53v-.08a316 316 0 0 0-5.62-43.08v-.17c-5.41-26.54-13-44.21-14.81-48.15C382.84 8.09 364 4 336 4z" class="cls-1" data-name="Path 499"/>
    </g>
</svg>
