<svg xmlns="http://www.w3.org/2000/svg" id="Med" width="29.92" height="29.92" viewBox="0 0 29.92 29.92">
    <defs>
        <style>
            .cls-1{fill:none;stroke:#02f6b6;stroke-miterlimit:10}.cls-2{fill:#02f6b6}
        </style>
    </defs>
    <path id="Path_875" d="M8.5.5h20.92v20.92a8 8 0 0 1-8 8H9.5a9 9 0 0 1-9-9V8.5a8 8 0 0 1 8-8z" class="cls-1" data-name="Path 875"/>
    <path id="Path_876" d="M21.13 10.9l1.07-1v-.25h-3.7l-2.64 6.57-3-6.57H9v.23l1.24 1.5a.49.49 0 0 1 .17.44v5.9a.68.68 0 0 1-.18.59L8.81 20v.22h4V20l-1.4-1.7a.72.72 0 0 1-.2-.59v-5.1l3.51 7.63h.4l3-7.63v6.08c0 .16 0 .19-.1.29L16.92 20v.23h5.26V20l-1.05-1a.32.32 0 0 1-.12-.3v-7.5a.31.31 0 0 1 .12-.3zm0 0" class="cls-2" data-name="Path 876"/>
</svg>
